<svg xmlns="http://www.w3.org/2000/svg" fill="none" viewBox="0 0 48 48" id="Background-Grid-Small-Fill--Streamline-Sharp-Fill-Material"><desc>Background Grid Small Fill Streamline Icon: https://streamlinehq.com</desc><path fill="#427bf5" d="M6 42h6.75v-6.75H6V42Zm9.75 0h6.75v-6.75h-6.75V42Zm9.75 0h6.75v-6.75H25.5V42Zm9.75 0H42v-6.75h-6.75V42ZM6 12.75h6.75V6H6v6.75Zm0 9.75h6.75v-6.75H6v6.75Zm0 9.75h6.75V25.5H6v6.75Zm9.75 -19.5h6.75V6h-6.75v6.75Zm0 9.75h6.75v-6.75h-6.75v6.75Zm0 9.75h6.75V25.5h-6.75v6.75Zm9.75 -19.5h6.75V6H25.5v6.75Zm0 9.75h6.75v-6.75H25.5v6.75Zm0 9.75h6.75V25.5H25.5v6.75Zm9.75 -19.5H42V6h-6.75v6.75Zm0 9.75H42v-6.75h-6.75v6.75Zm0 9.75H42V25.5h-6.75v6.75Z" stroke-width="1"></path></svg>