<svg id="Dashboard--Streamline-Carbon" xmlns="http://www.w3.org/2000/svg" viewBox="0 0 32 32"><desc>Dashboard Streamline Icon: https://streamlinehq.com</desc><defs></defs><title>dashboard</title><path d="M24 21h2v5h-2Z" fill="#000000" stroke-width="1"></path><path d="M20 16h2v10h-2Z" fill="#000000" stroke-width="1"></path><path d="M11 26a5.0059 5.0059 0 0 1 -5 -5h2a3 3 0 1 0 3 -3v-2a5 5 0 0 1 0 10Z" fill="#000000" stroke-width="1"></path><path d="M28 2H4a2.002 2.002 0 0 0 -2 2v24a2.0023 2.0023 0 0 0 2 2h24a2.0027 2.0027 0 0 0 2 -2V4a2.0023 2.0023 0 0 0 -2 -2Zm0 9H14V4h14ZM12 4v7H4V4ZM4 28V13h24.0007l0.0013 15Z" fill="#000000" stroke-width="1"></path><path id="_Transparent_Rectangle_" d="M0 0h32v32H0Z" fill="none" stroke-width="1"></path></svg>