<?xml version="1.0"?>
<svg width="474" height="140" xmlns="http://www.w3.org/2000/svg" xmlns:svg="http://www.w3.org/2000/svg" clip-rule="evenodd">
 <g class="layer">
  <title>Layer 1</title>
  <g id="reposition" transform="matrix(1 0 0 1 -450 -300)">
    <rect fill="#000000" height="413.386" id="svg_6" transform="matrix(0.556474 0 0 0.339237 -2188.49 49.3441)" width="852.638" x="4738.85319" y="729.7031"/>
    <g id="svg_7" transform="matrix(3.82398 0 0 2.10012 947.766 484.192)">
     <g id="svg_8" transform="matrix(1.42342 0 0 2.37248 -393.991 -123.922)">
      <text fill="white" font-family="&#x27;SegoeUI&#x27;, &#x27;Segoe UI&#x27;, sans-serif" font-size="11.931px" id="svg_9" x="215.78248" y="29.36778">I
       <tspan id="svg_10" x="219.37648" y="29.36778">MAGING</tspan></text>
     </g>
     <g id="svg_11" transform="matrix(0.732465 0 0 1.22072 -187.977 -21.053)">
      <text fill="white" font-family="&#x27;SegoeUI-Semibold&#x27;, &#x27;Segoe UI&#x27;, sans-serif" font-size="11.931px" font-weight="600" id="svg_12" x="138.90829" y="-13.23938">D
       <tspan id="svg_13" x="147.69829" y="-13.23938">ATA COMMONS</tspan></text>
     </g>
    </g>
    <g id="svg_14" transform="matrix(-0.713809 0 0 0.862333 4139.83 336.748)">
     <g id="svg_15" transform="matrix(0.636214 0 0 0.482063 907.7 -225.777)">
      <circle cx="6628.36686" cy="465.62289" fill="white" id="svg_16" r="19.934"/>
     </g>
     <g id="svg_17" transform="matrix(-1.07374 0 0 0.813582 12937.4 -1925.03)">
      <path d="m7406.28647,2425.99476l9.66,6.01c3.08,2.11 2.99,6.8 0,8.84l-52.79,32.84c-1.75,0.99 -3.8,0.96 -5.5,0l-52.8,-32.84c-3,-2.06 -3.01,-6.77 0,-8.84l9.67,-6.01l9.86,6.13l-6.91,4.3l42.93,26.7l42.93,-26.7l-6.91,-4.3l9.86,-6.13z" fill="rgb(95,161,218)" id="svg_18"/>
     </g>
     <g id="svg_19" transform="matrix(-1.07374 0 0 0.813582 12937.4 -1925.03)">
      <path d="m7314.37647,2399.09476l9.86,6.13l-6.76,4.2l42.93,26.71l42.93,-26.7l-6.76,-4.21l9.86,-6.13l9.51,5.91c3.01,2.06 3.01,6.78 0,8.85l-52.79,32.83c-1.75,0.99 -3.8,0.96 -5.5,0l-52.8,-32.83c-3.08,-2.11 -2.99,-6.8 0,-8.85l9.52,-5.91z" fill="rgb(72,196,215)" id="svg_20"/>
     </g>
     <g id="svg_21" transform="matrix(0.689654 0 0 0.626883 713.71 -1108.98)">
      <path d="m6265.53061,1741.1019c2.49,0.29 1.86,0.21 3.53,0.99l47.55,24.65c5.28,3.03 4.3,10.75 -2.08,12.25c-2.11,0.49 -3.56,0.6 -6.49,-0.77l-43.26,-22.43l-66.84,34.66l66.84,34.65l90.18,-46.76c0,0 3.96,-1.61 7.2,-0.57c5.07,1.63 6.66,8.17 2.56,11.3c-0.49,0.37 -0.64,0.44 -1.19,0.75l-94.47,48.98c-2.25,1.05 -4.9,1.31 -7.22,0.56c-0.63,-0.2 -0.76,-0.29 -1.34,-0.56l-82.2,-42.61c-4.67,-2.68 -4.77,-8.75 0,-11.48l82.2,-42.62c2.77,-1.29 2.99,-1.07 5.03,-0.99z" fill="white" id="svg_22"/>
     </g>
    </g>
  </g>
  <clipPath id="_clip1">
   <rect fill="black" height="76.477" id="svg_3" width="141.511" x="-23.649" y="13.731"/>
  </clipPath>
 </g>
</svg>
