<?xml version="1.0" encoding="UTF-8" standalone="no"?>
<!DOCTYPE svg PUBLIC "-//W3C//DTD SVG 1.1//EN" "http://www.w3.org/Graphics/SVG/1.1/DTD/svg11.dtd">
<svg width="100%" height="100%" viewBox="0 0 1576 788" version="1.1" xmlns="http://www.w3.org/2000/svg" xmlns:xlink="http://www.w3.org/1999/xlink" xml:space="preserve" xmlns:serif="http://www.serif.com/" style="fill-rule:evenodd;clip-rule:evenodd;stroke-linejoin:round;stroke-miterlimit:2;">
    <g transform="matrix(1,0,0,1,-1652,0)">
        <g id="idc-darkBg" transform="matrix(11.1285,0,0,10.296,1915.73,-141.379)">
            <rect x="-23.649" y="13.731" width="141.511" height="76.477" style="fill:none;"/>
            <clipPath id="_clip1">
                <rect x="-23.649" y="13.731" width="141.511" height="76.477"/>
            </clipPath>
            <g clip-path="url(#_clip1)">
                <g transform="matrix(0.173305,0,0,0.19391,-915.781,-170.429)">
                    <rect x="5138.96" y="943.882" width="852.638" height="413.386" style="fill:rgb(9,58,82);"/>
                </g>
                <g transform="matrix(0.597773,0,0,0.387648,16.2564,31.8556)">
                    <g transform="matrix(1.42342,0,0,2.37248,-393.991,-123.922)">
                        <text x="297.275px" y="74.526px" style="font-family:'SegoeUI', 'Segoe UI', sans-serif;font-size:11.931px;fill:white;">I<tspan x="300.869px 312.002px 319.884px 328.488px 332.083px 341.427px " y="74.526px 74.526px 74.526px 74.526px 74.526px 74.526px ">MAGING</tspan></text>
                    </g>
                    <g transform="matrix(0.732465,0,0,1.22072,-187.977,-21.053)">
                        <text x="297.275px" y="74.526px" style="font-family:'SegoeUI-Semibold', 'Segoe UI', sans-serif;font-weight:600;font-size:11.931px;fill:white;">D<tspan x="306.065px 313.65px 319.785px 328.005px 331.494px 339.172px 348.61px 360.057px 371.504px 380.942px 390.513px " y="74.526px 74.526px 74.526px 74.526px 74.526px 74.526px 74.526px 74.526px 74.526px 74.526px 74.526px ">ATA COMMONS</tspan></text>
                    </g>
                </g>
                <g transform="matrix(-0.111584,0,0,0.159173,515.247,4.6398)">
                    <g transform="matrix(0.636214,0,0,0.482063,907.7,-225.777)">
                        <circle cx="5651.62" cy="1006.88" r="19.934" style="fill:white;"/>
                    </g>
                    <g transform="matrix(-1.07374,0,0,0.813582,12937.4,-1925.03)">
                        <path d="M7985.03,2746.7L7994.69,2752.71C7997.77,2754.82 7997.68,2759.51 7994.69,2761.55L7941.9,2794.39C7940.15,2795.38 7938.1,2795.35 7936.4,2794.39L7883.6,2761.55C7880.6,2759.49 7880.59,2754.78 7883.6,2752.71L7893.27,2746.7L7903.13,2752.83L7896.22,2757.13L7939.15,2783.83L7982.08,2757.13L7975.17,2752.83L7985.03,2746.7Z" style="fill:rgb(95,161,218);"/>
                    </g>
                    <g transform="matrix(-1.07374,0,0,0.813582,12937.4,-1925.03)">
                        <path d="M7893.12,2719.8L7902.98,2725.93L7896.22,2730.13L7939.15,2756.84L7982.08,2730.14L7975.32,2725.93L7985.18,2719.8L7994.69,2725.71C7997.7,2727.77 7997.7,2732.49 7994.69,2734.56L7941.9,2767.39C7940.15,2768.38 7938.1,2768.35 7936.4,2767.39L7883.6,2734.56C7880.52,2732.45 7880.61,2727.76 7883.6,2725.71L7893.12,2719.8Z" style="fill:rgb(72,196,215);"/>
                    </g>
                    <g transform="matrix(0.689654,0,0,0.626883,713.71,-1108.98)">
                        <path d="M5364.47,2157.32C5366.96,2157.61 5366.33,2157.53 5368,2158.31L5415.55,2182.96C5420.83,2185.99 5419.85,2193.71 5413.47,2195.21C5411.36,2195.7 5409.91,2195.81 5406.98,2194.44L5363.72,2172.01L5296.88,2206.67L5363.72,2241.32L5453.9,2194.56C5453.9,2194.56 5457.86,2192.95 5461.1,2193.99C5466.17,2195.62 5467.76,2202.16 5463.66,2205.29C5463.17,2205.66 5463.02,2205.73 5462.47,2206.04L5368,2255.02C5365.75,2256.07 5363.1,2256.33 5360.78,2255.58C5360.15,2255.38 5360.02,2255.29 5359.44,2255.02L5277.24,2212.41C5272.57,2209.73 5272.47,2203.66 5277.24,2200.93L5359.44,2158.31C5362.21,2157.02 5362.43,2157.24 5364.47,2157.32Z" style="fill:white;"/>
                    </g>
                </g>
            </g>
        </g>
    </g>
</svg>
