<svg xmlns="http://www.w3.org/2000/svg" fill="none" viewBox="0 0 48 48" id="Library--Streamline-Ionic-Filled"><desc>Library Streamline Icon: https://streamlinehq.com</desc><path fill="#000000" d="M5.99603 45H4.49605c-0.79563 0 -1.55869 -0.316 -2.12129 -0.8787 -0.5626 -0.5626 -0.87867 -1.3256 -0.87867 -2.1213V10.5004c0 -0.7956 0.31607 -1.55865 0.87867 -2.12124 0.5626 -0.56261 1.32566 -0.87867 2.12129 -0.87867h1.49998c0.79564 0 1.5587 0.31606 2.12129 0.87867 0.56261 0.56259 0.87867 1.32564 0.87867 2.12124V42c0 0.7957 -0.31606 1.5587 -0.87867 2.1213C7.55473 44.684 6.79167 45 5.99603 45Z" stroke-width="1"></path><path fill="#000000" d="M22.4933 16.501c0 -0.7955 -0.316 -1.5584 -0.8786 -2.121 -0.5625 -0.5626 -1.3254 -0.8785 -2.121 -0.8785h-5.999c-0.7956 0 -1.5585 0.3159 -2.121 0.8785 -0.5626 0.5626 -0.8786 1.3255 -0.8786 2.121v2.6246c0 0.0995 0.0395 0.1948 0.1099 0.2651 0.0703 0.0704 0.1656 0.1099 0.2651 0.1099h11.2482c0.0995 0 0.1948 -0.0395 0.2651 -0.1099 0.0704 -0.0703 0.1099 -0.1656 0.1099 -0.2651V16.501Z" stroke-width="1"></path><path fill="#000000" d="M10.4951 42.0005c0 0.7956 0.316 1.5585 0.8786 2.121 0.5625 0.5626 1.3254 0.8786 2.121 0.8786h5.999c0.7956 0 1.5585 -0.316 2.121 -0.8786 0.5626 -0.5625 0.8786 -1.3254 0.8786 -2.121v-2.8121c0 -0.0496 -0.0198 -0.0973 -0.0549 -0.1325 -0.0352 -0.0351 -0.0829 -0.0549 -0.1326 -0.0549H10.6826c-0.0497 0 -0.0974 0.0198 -0.1326 0.0549 -0.0351 0.0352 -0.0549 0.0829 -0.0549 0.1325v2.8121Z" stroke-width="1"></path><path fill="#000000" d="M22.3058 22.5H10.6826c-0.1036 0 -0.1875 0.0839 -0.1875 0.1875v13.123c0 0.1036 0.0839 0.1874 0.1875 0.1874h11.6232c0.1036 0 0.1875 -0.0838 0.1875 -0.1874v-13.123c0 -0.1036 -0.0839 -0.1875 -0.1875 -0.1875Z" stroke-width="1"></path><path fill="#000000" d="M29.995 45.0004h-2.9999c-0.7957 0 -1.5587 -0.316 -2.1213 -0.8787 -0.5627 -0.5626 -0.8787 -1.3256 -0.8787 -2.1212V6.00094c0 -0.79564 0.316 -1.5587 0.8787 -2.12129 0.5626 -0.56261 1.3256 -0.87867 2.1213 -0.87867h2.9999c0.7957 0 1.5587 0.31606 2.1213 0.87867 0.5627 0.56259 0.8787 1.32565 0.8787 2.12129V42.0005c0 0.7956 -0.316 1.5586 -0.8787 2.1212 -0.5626 0.5627 -1.3256 0.8787 -2.1213 0.8787Z" stroke-width="1"></path><path fill="#000000" d="M46.4841 41.7615 43.4626 9.88691c-0.1388 -1.46713 -1.5881 -2.53118 -3.2372 -2.37274l-2.9859 0.28124c-1.649 0.15656 -2.8734 1.47279 -2.7346 2.93989l3.0215 31.8746c0.1387 1.4672 1.5881 2.5312 3.2371 2.3728l2.9859 -0.2813c1.6491 -0.1565 2.8734 -1.4728 2.7347 -2.9399Z" stroke-width="1"></path></svg>