<?xml version="1.0" encoding="utf-8"?>
<!-- Generator: Adobe Illustrator 27.4.1, SVG Export Plug-In . SVG Version: 6.00 Build 0)  -->
<svg version="1.1" id="Library--Streamline-Ionic-Filled"
	 xmlns="http://www.w3.org/2000/svg" xmlns:xlink="http://www.w3.org/1999/xlink" x="0px" y="0px" viewBox="0 0 48 48"
	 style="enable-background:new 0 0 48 48;" xml:space="preserve">
<style type="text/css">
	.st0{fill:#8FBFFA;}
	.st1{fill:#2859C5;}
</style>
<g>
	<path class="st0" d="M4.5,44.5c-0.7,0-1.3-0.3-1.7-0.7C2.2,43.2,2,42.7,2,42V10.5c0-0.7,0.3-1.3,0.7-1.7C3.3,8.2,3.8,8,4.5,8H6
		c0.7,0,1.3,0.3,1.7,0.7c0.5,0.4,0.8,1.1,0.8,1.8V42c0,0.7-0.3,1.3-0.7,1.7c-0.4,0.5-1.1,0.8-1.8,0.8H4.5z"/>
	<path class="st1" d="M6,8.5c0.6,0,1,0.2,1.3,0.5l0.1,0.1l0.1,0.1C7.8,9.5,8,9.9,8,10.5V42c0,0.6-0.2,1-0.5,1.3l-0.1,0.1l-0.1,0.1
		C7,43.8,6.6,44,6,44H4.5c-0.6,0-1-0.2-1.3-0.5l0,0l0,0C2.7,43,2.5,42.5,2.5,42V10.5c0-0.6,0.2-1,0.5-1.3l0,0l0,0
		C3.5,8.7,4,8.5,4.5,8.5H6 M6,7.5H4.5C3.7,7.5,3,7.8,2.4,8.4c-0.6,0.5-0.9,1.3-0.9,2.1V42c0,0.8,0.3,1.5,0.9,2.1
		C2.9,44.7,3.7,45,4.5,45H6c0.8,0,1.6-0.3,2.1-0.9C8.7,43.6,9,42.8,9,42V10.5c0-0.8-0.3-1.6-0.9-2.1C7.6,7.8,6.8,7.5,6,7.5L6,7.5z"
		/>
</g>
<path class="st1" d="M22.5,16.5c0-0.8-0.3-1.6-0.9-2.1c-0.6-0.6-1.3-0.9-2.1-0.9h-6c-0.8,0-1.6,0.3-2.1,0.9
	c-0.6,0.6-0.9,1.3-0.9,2.1v2.6c0,0.1,0,0.2,0.1,0.3c0.1,0.1,0.2,0.1,0.3,0.1h11.2c0.1,0,0.2,0,0.3-0.1c0.1-0.1,0.1-0.2,0.1-0.3V16.5
	z"/>
<path class="st1" d="M10.5,42c0,0.8,0.3,1.6,0.9,2.1c0.6,0.6,1.3,0.9,2.1,0.9h6c0.8,0,1.6-0.3,2.1-0.9c0.6-0.6,0.9-1.3,0.9-2.1v-2.8
	c0,0,0-0.1-0.1-0.1L22.3,39H10.7c0,0-0.1,0-0.1,0.1l-0.1,0.1C10.5,39.2,10.5,42,10.5,42z"/>
<path class="st1" d="M22.3,22.5H10.7c-0.1,0-0.2,0.1-0.2,0.2v13.1c0,0.1,0.1,0.2,0.2,0.2h11.6c0.1,0,0.2-0.1,0.2-0.2V22.7
	C22.5,22.6,22.4,22.5,22.3,22.5z"/>
<g>
	<path class="st0" d="M27,44.5c-0.7,0-1.3-0.3-1.7-0.7c-0.5-0.4-0.8-1.1-0.8-1.8V6c0-0.7,0.3-1.3,0.7-1.7c0.4-0.5,1.1-0.8,1.8-0.8h3
		c0.7,0,1.3,0.3,1.7,0.7c0.5,0.4,0.8,1.1,0.8,1.8v36c0,0.7-0.3,1.3-0.7,1.7c-0.4,0.5-1.1,0.8-1.8,0.8H27z"/>
	<path class="st1" d="M30,4c0.6,0,1,0.2,1.3,0.5l0.1,0.1l0.1,0.1C31.8,5,32,5.4,32,6v36c0,0.6-0.2,1-0.5,1.3l-0.1,0.1l-0.1,0.1
		C31,43.8,30.6,44,30,44h-3c-0.6,0-1-0.2-1.3-0.5l-0.1-0.1l-0.1-0.1C25.2,43,25,42.6,25,42V6c0-0.6,0.2-1,0.5-1.3l0.1-0.1l0.1-0.1
		C26,4.2,26.4,4,27,4H30 M30,3h-3c-0.8,0-1.6,0.3-2.1,0.9C24.3,4.4,24,5.2,24,6v36c0,0.8,0.3,1.6,0.9,2.1c0.5,0.6,1.3,0.9,2.1,0.9h3
		c0.8,0,1.6-0.3,2.1-0.9c0.6-0.5,0.9-1.3,0.9-2.1V6c0-0.8-0.3-1.6-0.9-2.1C31.6,3.3,30.8,3,30,3L30,3z"/>
</g>
<path class="st1" d="M46.5,41.8l-3-31.9c-0.1-1.5-1.6-2.5-3.2-2.4l-3,0.3c-1.6,0.2-2.9,1.5-2.7,2.9l3,31.9c0.1,1.5,1.6,2.5,3.2,2.4
	l3-0.3C45.4,44.5,46.6,43.2,46.5,41.8z"/>
</svg>
