<svg width="327" height="46" viewBox="0 0 327 46" fill="none" xmlns="http://www.w3.org/2000/svg">
<path fill-rule="evenodd" clip-rule="evenodd" d="M74.172 35.372C75.225 35.372 76.198 34.886 76.684 33.969C77.171 33.051 77.171 31.971 77.171 31.377V31.053H76.361C74.793 31.053 72.091 31.053 72.091 33.375C72.091 34.562 72.794 35.372 74.171 35.372H74.172ZM69.876 23.389C69.876 23.389 71.714 22.741 74.631 22.741C76.846 22.741 78.846 23.119 79.872 24.576C80.683 25.71 80.683 27.221 80.683 28.571V33.645C80.683 34.265 80.683 35.372 81.953 35.372C82.358 35.372 82.736 35.264 82.736 35.264V37.747C82.736 37.747 81.926 37.963 80.845 37.963C78.954 37.963 77.765 37.315 77.549 35.318C77.009 37.045 75.333 38.017 73.172 38.017C70.254 38.017 68.417 36.235 68.417 33.564C68.417 30.352 71.065 28.787 75.765 28.787C76.63 28.787 77.171 28.84 77.171 28.84C77.171 27.599 77.171 27.005 76.738 26.358C76.306 25.737 75.576 25.386 74.118 25.386C71.984 25.386 70.092 26.142 70.092 26.142H69.876V23.389V23.389ZM94.192 26.142H93.975C93.975 26.142 92.085 25.386 90.409 25.386C88.896 25.386 88.194 25.98 88.194 26.736C88.194 29.029 94.894 28.355 94.894 33.482C94.894 36.641 92.382 38.017 88.816 38.017C86.249 38.017 84.628 37.315 84.628 37.315V34.455H84.844C84.844 34.455 87.114 35.372 89.004 35.372C90.625 35.372 91.328 34.724 91.328 33.86C91.328 31.188 84.628 31.971 84.628 27.14C84.628 24.441 86.735 22.74 90.49 22.74C92.598 22.74 94.192 23.28 94.192 23.28V26.142V26.142ZM106.62 26.142H106.403C106.403 26.142 104.512 25.386 102.837 25.386C101.324 25.386 100.622 25.98 100.622 26.736C100.622 29.029 107.322 28.355 107.322 33.482C107.322 36.641 104.809 38.017 101.243 38.017C98.677 38.017 97.056 37.315 97.056 37.315V34.455H97.272C97.272 34.455 99.542 35.372 101.432 35.372C103.053 35.372 103.755 34.724 103.755 33.86C103.755 31.188 97.055 31.971 97.055 27.14C97.055 24.441 99.163 22.74 102.918 22.74C105.025 22.74 106.619 23.28 106.619 23.28V26.142H106.62ZM131.934 27.059V36.991C131.934 36.991 129.286 38.071 125.694 38.071C119.452 38.071 115.184 34.832 115.184 27.815C115.184 20.636 119.668 17.289 126.153 17.289C129.124 17.289 131.286 17.991 131.286 17.991V20.851H131.07C131.07 20.851 128.962 19.988 126.26 19.988C121.776 19.988 119.02 22.363 119.02 27.598C119.02 32.835 121.776 35.372 125.72 35.372C127.233 35.372 128.368 34.994 128.368 34.994V29.758H124.748V27.059H131.934ZM144.308 28.948C144.308 26.465 143.552 25.062 141.498 25.062C139.418 25.062 138.58 26.546 138.364 28.948H144.308ZM147.063 37.368C147.063 37.368 145.037 38.017 142.363 38.017C139.499 38.017 137.824 37.261 136.689 36.182C135.339 34.886 134.689 32.942 134.689 30.487C134.689 25.656 137.176 22.579 141.606 22.579C144.038 22.579 145.874 23.497 146.902 25.17C147.928 26.843 147.928 29.056 147.928 31.377H138.364C138.364 33.915 139.823 35.427 142.634 35.427C144.686 35.427 146.847 34.617 146.847 34.617H147.063V37.369V37.368ZM153.683 22.957L154.331 25.494C154.818 23.766 156.169 22.633 158.735 22.633C161.032 22.633 162.328 23.55 163.031 24.576C163.895 25.817 163.895 27.275 163.895 29.056V37.801H160.329V29.003C160.329 28.139 160.329 27.275 159.843 26.573C159.357 25.871 158.654 25.493 157.493 25.493C154.818 25.493 154.493 27.545 154.493 28.733V37.801H150.928V22.957H153.683ZM176.242 28.948C176.242 26.465 175.486 25.062 173.432 25.062C171.352 25.062 170.515 26.546 170.299 28.948H176.242ZM178.998 37.368C178.998 37.368 176.972 38.017 174.298 38.017C171.433 38.017 169.758 37.261 168.623 36.182C167.273 34.886 166.624 32.942 166.624 30.487C166.624 25.656 169.11 22.579 173.541 22.579C175.972 22.579 177.809 23.497 178.836 25.17C179.862 26.843 179.862 29.056 179.862 31.377H170.3C170.3 33.915 171.758 35.427 174.569 35.427C176.621 35.427 178.783 34.617 178.783 34.617H178.999V37.369L178.998 37.368ZM191.183 26.142C191.183 26.142 190.453 25.98 189.616 25.98C186.428 25.98 186.428 28.328 186.428 29.488V37.801H182.862V22.957H185.564L186.266 25.872C186.806 23.389 188.644 22.795 190.805 22.795H191.183V26.142V26.142ZM197.802 35.372C198.856 35.372 199.829 34.886 200.315 33.969C200.801 33.051 200.801 31.971 200.801 31.377V31.053H199.991C198.424 31.053 195.722 31.053 195.722 33.375C195.722 34.562 196.425 35.372 197.802 35.372ZM193.507 23.389C193.507 23.389 195.344 22.741 198.261 22.741C200.477 22.741 202.477 23.119 203.503 24.576C204.313 25.71 204.313 27.221 204.313 28.571V33.645C204.313 34.265 204.313 35.372 205.583 35.372C205.988 35.372 206.367 35.264 206.367 35.264V37.747C206.367 37.747 205.556 37.963 204.475 37.963C202.585 37.963 201.395 37.315 201.18 35.318C200.64 37.045 198.964 38.017 196.803 38.017C193.885 38.017 192.048 36.235 192.048 33.564C192.048 30.352 194.696 28.787 199.396 28.787C200.261 28.787 200.801 28.84 200.801 28.84C200.801 27.599 200.801 27.005 200.369 26.358C199.936 25.737 199.207 25.386 197.749 25.386C195.614 25.386 193.723 26.142 193.723 26.142H193.507V23.389V23.389ZM212.121 16.749V25.871V37.801H208.609V16.749H212.121ZM225.684 35.21H228.601C229.52 35.21 230.573 35.21 231.627 34.616C232.573 34.076 233.087 33.213 233.087 31.917C233.087 30.622 232.573 29.758 231.627 29.219C230.573 28.625 229.52 28.625 228.601 28.625H225.684V35.21ZM225.684 25.871H228.169C228.98 25.871 229.817 25.871 230.601 25.44C231.357 25.008 231.898 24.252 231.898 23.01C231.898 21.77 231.358 20.96 230.601 20.528C229.817 20.096 228.98 20.096 228.169 20.096H225.684V25.871ZM228.656 17.505C230.222 17.505 231.952 17.505 233.41 18.369C234.653 19.097 235.626 20.366 235.626 22.498C235.626 26.546 232.059 26.951 232.059 26.951C232.059 26.951 236.815 27.167 236.815 31.971C236.815 34.291 235.735 35.749 234.275 36.667C232.492 37.801 230.438 37.801 228.764 37.801H222.118V17.505H228.656V17.505ZM247.865 26.142C247.865 26.142 247.135 25.98 246.298 25.98C243.11 25.98 243.11 28.328 243.11 29.488V37.801H239.544V22.957H242.245L242.948 25.872C243.488 23.389 245.325 22.795 247.487 22.795H247.865V26.142V26.142ZM253.511 22.957V37.801H250V22.957H253.511ZM253.89 18.747C253.89 19.934 253.025 20.852 251.756 20.852C250.486 20.852 249.621 19.934 249.621 18.747C249.621 17.559 250.486 16.642 251.756 16.642C253.026 16.642 253.89 17.559 253.89 18.747ZM265.453 27.383C265.453 25.871 264.534 25.062 262.968 25.062C261.4 25.062 260.482 25.872 260.482 27.383C260.482 28.894 261.4 29.704 262.968 29.704C264.534 29.704 265.453 28.894 265.453 27.383ZM259.942 37.261C259.942 37.261 258.915 37.801 258.915 39.042C258.915 40.338 260.049 40.932 262.643 40.932C265.507 40.932 267.02 40.23 267.02 38.826C267.02 37.315 265.183 37.261 264.318 37.261H259.942V37.261ZM262.968 32.187C262.238 32.187 261.562 32.133 260.941 31.998C260.59 32.188 260.157 32.538 260.157 33.213C260.157 34.346 261.347 34.346 262.157 34.346H264.697C266.533 34.346 270.532 34.346 270.532 38.34C270.532 41.58 267.938 43.307 262.508 43.307C257.753 43.307 255.673 41.984 255.673 39.717C255.673 37.099 258.428 36.748 258.563 36.721C258.483 36.694 256.646 36.073 256.646 34.184C256.646 32.268 258.482 31.647 259.428 31.459C257.807 30.649 256.862 29.219 256.862 27.383C256.862 24.468 259.239 22.579 262.968 22.579C264.804 22.579 266.318 23.038 267.371 23.874C268.047 21.985 269.613 21.985 270.532 21.985H270.856V24.9C270.856 24.9 270.316 24.792 269.668 24.792C268.965 24.792 268.614 24.927 268.425 25.008C268.83 25.683 269.073 26.492 269.073 27.383C269.073 30.298 266.696 32.187 262.968 32.187V32.187ZM276.665 16.749V25.278C277.151 23.713 278.34 22.633 280.88 22.633C283.203 22.633 284.5 23.551 285.203 24.576C286.067 25.818 286.067 27.276 286.067 29.056V37.801H282.501V29.002C282.501 28.139 282.501 27.275 282.015 26.573C281.528 25.871 280.826 25.493 279.665 25.493C276.989 25.493 276.665 27.545 276.665 28.733V37.801H273.153V16.749H276.665V16.749ZM294.28 35.372C295.334 35.372 296.307 34.886 296.793 33.969C297.279 33.051 297.279 31.971 297.279 31.377V31.053H296.469C294.902 31.053 292.2 31.053 292.2 33.375C292.2 34.562 292.902 35.372 294.28 35.372V35.372ZM289.985 23.389C289.985 23.389 291.822 22.741 294.74 22.741C296.955 22.741 298.954 23.119 299.98 24.576C300.791 25.71 300.791 27.221 300.791 28.571V33.645C300.791 34.265 300.791 35.372 302.061 35.372C302.466 35.372 302.845 35.264 302.845 35.264V37.747C302.845 37.747 302.035 37.963 300.953 37.963C299.063 37.963 297.873 37.315 297.657 35.318C297.117 37.045 295.442 38.017 293.281 38.017C290.363 38.017 288.526 36.235 288.526 33.564C288.526 30.352 291.173 28.787 295.874 28.787C296.739 28.787 297.279 28.84 297.279 28.84C297.279 27.599 297.279 27.005 296.847 26.358C296.415 25.737 295.685 25.386 294.227 25.386C292.092 25.386 290.201 26.142 290.201 26.142H289.985V23.389V23.389ZM307.843 22.957L308.491 25.494C308.923 23.82 310.166 22.633 312.787 22.633C315.353 22.633 316.65 23.766 317.299 25.601C318.001 23.604 319.352 22.633 321.622 22.633C323.944 22.633 325.188 23.659 325.782 24.576C326.592 25.817 326.592 27.275 326.592 29.056V37.801H323.026V29.003C323.026 28.139 323.026 27.275 322.594 26.573C322.216 25.979 321.568 25.493 320.379 25.493C317.947 25.493 317.623 27.545 317.623 28.733V37.801H314.057V29.003C314.057 28.139 314.057 27.275 313.624 26.573C313.246 25.979 312.598 25.493 311.409 25.493C308.977 25.493 308.653 27.545 308.653 28.733V37.801H305.087V22.957H307.843V22.957Z" fill="#003A96"/>
<path fill-rule="evenodd" clip-rule="evenodd" d="M48.451 17.505L54.935 32.997L61.257 17.505H65.796V37.801H62.23V21.931L56.232 36.775H53.044L47.047 21.931V37.801H43.859V17.505H48.451Z" fill="#003A96"/>
<path fill-rule="evenodd" clip-rule="evenodd" d="M0 14.928H15.84H31.68V11.052H0V14.928Z" fill="#009CA6"/>
<path fill-rule="evenodd" clip-rule="evenodd" d="M15.84 0.449997L0 5.73V9.732L15.84 4.452L31.68 9.732V5.73L15.84 0.449997Z" fill="#009CA6"/>
<path fill-rule="evenodd" clip-rule="evenodd" d="M9.14203 17.505V24.724V31.265H13.397V17.505H9.14203ZM18.283 17.505V24.724V31.265H22.539V17.505H18.283Z" fill="#009CA6"/>
<path fill-rule="evenodd" clip-rule="evenodd" d="M31.68 30.959C31.596 31.191 30.06 33.841 19.947 33.841H11.734C1.36 33.921 0.197 35.271 0 35.415V39.375C0.197 39.231 1.36 37.881 11.734 37.801H19.947C30.061 37.801 31.597 35.151 31.68 34.919V30.959Z" fill="#009CA6"/>
<path fill-rule="evenodd" clip-rule="evenodd" d="M31.68 37.559C31.596 37.792 30.06 40.442 19.947 40.442H11.734C1.36 40.521 0.197 41.871 0 42.015V45.975C0.197 45.831 1.36 44.481 11.734 44.402H19.947C30.061 44.402 31.597 41.752 31.68 41.519V37.559Z" fill="#009CA6"/>
<path fill-rule="evenodd" clip-rule="evenodd" d="M4.256 17.505H0V24.724V31.265H4.256V17.505Z" fill="#009CA6"/>
<path fill-rule="evenodd" clip-rule="evenodd" d="M27.425 17.505V30.555C30.914 29.753 31.625 28.516 31.681 28.361V17.505H27.425Z" fill="#009CA6"/>
</svg>
