<?xml version="1.0" encoding="utf-8"?>
<!-- Generator: Adobe Illustrator 27.4.1, SVG Export Plug-In . SVG Version: 6.00 Build 0)  -->
<svg version="1.1" id="Layer_1" xmlns="http://www.w3.org/2000/svg" xmlns:xlink="http://www.w3.org/1999/xlink" x="0px" y="0px"
	 viewBox="0 0 249.7 75" style="enable-background:new 0 0 249.7 75;" xml:space="preserve">
<style type="text/css">
	.st0{fill-rule:evenodd;clip-rule:evenodd;fill:#164D60;}
	.st1{fill:none;stroke:#164D60;stroke-width:3.6;stroke-linecap:round;stroke-linejoin:round;}
	.st2{fill:none;stroke:#164D60;stroke-width:1.8;}
	.st3{fill:#164D60;}
	.st4{font-family:'ArialMT';}
	.st5{font-size:62.319px;}
	.st6{letter-spacing:-2;}
</style>
<g id="mhub_logo_green">
	<g id="Group-Copy" transform="translate(29.000000, 21.000000)">
		<path id="Combined-Shape_00000170981393737727526900000008138281464393370250_" class="st0" d="M38.3-18c3.8,0,7,3,7.2,6.8v0.4
			v56.2c0,1.6-0.6,3.2-1.6,4.5c-2.4,3-6.7,3.6-9.8,1.4l-0.3-0.2L10.5,32.3l11.8-9.4l0,0l0,0c0.3-0.2,0.6-0.5,0.9-0.8l0.3-0.3
			c2.4-3,2-7.3-0.8-9.8l-0.2-0.1c-0.1-0.1-0.1-0.1-0.2-0.2l0.1,0.1l-0.1-0.1L10.5,2.3l23.3-18.7c1.2-0.9,2.6-1.5,4-1.6H38.3z"/>
		<polyline id="Path-8_00000010302367870240859300000000617608190404206747_" class="st1" points="-17.3,42.4 -17.3,-9.6 16.8,17.3 
					"/>
		<path id="Path-5-Copy-2_00000142158341004121031760000013292154878640586931_" class="st2" d="M-24.5,45.3v-56
			c0-4,3.2-7.2,7.2-7.2c1.6,0,3.2,0.6,4.5,1.6l35.1,28c3.1,2.5,3.6,7,1.1,10.1c-0.3,0.4-0.7,0.8-1.1,1.1l-35.1,28
			c-3.1,2.5-7.6,2-10.1-1.1C-23.9,48.6-24.5,47-24.5,45.3z"/>
	</g>
	<g id="MH-Copy-2" transform="translate(122.000000, 39.000000)">
		<path id="Path" class="st3" d="M13.2-3.4c1.7-4.2,4.7-13.1,5.9-17c-0.2,4.2-1,15.3-1,24.1v17.2c0,1.7,1.2,2.5,2.9,2.5
			c1.6,0,2.9-0.8,2.9-2.5V-22c0-2.2-1.6-3.7-3.9-3.7c-2.7,0-4.2,0.9-5.1,3.4L3.6,6.1C2.2,9.6,0.3,15-0.3,17.7
			C-0.9,15-2.9,9.2-4.1,6.2l-11.5-28.6c-0.9-2.3-2.2-3.3-4.9-3.3c-2.4,0-4,1.4-4,3.7v42.9c0,1.6,1.2,2.4,2.9,2.4s2.9-0.8,2.9-2.5
			V3.6c0-8.7-0.7-19.9-0.9-24c1.1,3.9,4.1,12.9,5.9,17.3l9.4,23.5c0.9,2.2,2,2.9,4,2.9s3.1-0.7,4-2.8L13.2-3.4z"/>
		<path id="Path_00000084506067731557250440000011396199974851887759_" class="st3" d="M54.5-5.1H30.8c-1.5,0-2.7,1.2-2.7,2.7
			s1.2,2.7,2.7,2.7h23.7l0,0v20.5c0,1.7,1.3,2.5,3.1,2.5c1.6,0,2.9-0.9,2.9-2.5v-44c0-1.7-1.2-2.5-2.9-2.5c-1.7,0-3.1,0.8-3.1,2.5
			V-5.1z"/>
	</g>
	<text transform="matrix(1 0 0 1 183.5106 62.3404)" class="st3 st4 st5 st6">ub</text>
</g>
</svg>
