<?xml version="1.0" encoding="UTF-8"?>
<svg width="316px" height="128px" viewBox="0 0 316 128" version="1.1" xmlns="http://www.w3.org/2000/svg" xmlns:xlink="http://www.w3.org/1999/xlink">
    <title>mhub_logo_green@1x</title>
    <defs>
        <filter x="-53.4%" y="-42.4%" width="205.6%" height="184.9%" filterUnits="objectBoundingBox" id="filter-1">
            <feOffset dx="0" dy="0" in="SourceAlpha" result="shadowOffsetOuter1"></feOffset>
            <feGaussianBlur stdDeviation="9.5" in="shadowOffsetOuter1" result="shadowBlurOuter1"></feGaussianBlur>
            <feColorMatrix values="0 0 0 0 0   0 0 0 0 0   0 0 0 0 0  0 0 0 0.018902972 0" type="matrix" in="shadowBlurOuter1" result="shadowMatrixOuter1"></feColorMatrix>
            <feMerge>
                <feMergeNode in="shadowMatrixOuter1"></feMergeNode>
                <feMergeNode in="SourceGraphic"></feMergeNode>
            </feMerge>
        </filter>
    </defs>
    <g id="mhub_logo_green" stroke="none" stroke-width="1" fill="none" fill-rule="evenodd">
        <g id="Group-Copy" filter="url(#filter-1)" transform="translate(29.000000, 21.000000)">
            <path d="M62.8205128,7.74447807 C66.6654789,7.74447807 69.8045005,10.7615883 69.9912136,14.5534558 L70,14.9111447 L70,71.0888553 C70,72.716201 69.4451638,74.2950929 68.4267504,75.5658364 C66.0323252,78.5535233 61.7306943,79.1213659 58.6497576,76.9224406 L58.3355227,76.6850817 L35.0019972,58.0474781 L46.8008555,48.626174 L46.8008555,48.626174 L46.8383568,48.5962265 C47.1488591,48.3482682 47.4380083,48.0751327 47.7029026,47.7797167 L47.9596044,47.4769812 C50.3540296,44.4892943 49.964753,40.175427 47.1393191,37.6576936 L47.0211248,37.5568806 C46.9492175,37.4947031 46.8757926,37.4336686 46.8008555,37.373826 L46.9399972,37.4894781 L46.8383568,37.4037735 L35,27.9508947 L58.3355227,9.31491827 C59.4928107,8.39074117 60.9052224,7.84900161 62.3772962,7.75814134 L62.8205128,7.74447807 Z" id="Combined-Shape" fill="#7B8F98"></path>
            <polyline id="Path-8" stroke="#7B8F98" stroke-width="3.6" stroke-linecap="round" stroke-linejoin="round" points="7.17948718 68.0833333 7.17948718 16.125 41.2820513 43"></polyline>
            <path d="M0,71.0362087 L0,14.9637913 C5.73027424e-15,10.9873411 3.2235498,7.76379125 7.2,7.76379125 C8.83276212,7.76379125 10.4170402,8.31875064 11.6929018,9.33761728 L46.8008555,37.373826 C49.9081056,39.8551872 50.4154888,44.3856517 47.9341277,47.4929018 C47.599722,47.9116566 47.2196103,48.2917683 46.8008555,48.626174 L11.6929018,76.6623827 C8.5856517,79.1437439 4.05518717,78.6363606 1.57382603,75.5291105 C0.554959385,74.2532489 1.52989888e-14,72.6689709 0,71.0362087 Z" id="Path-5-Copy-2" stroke="#7B8F98" stroke-width="1.8"></path>
        </g>
        <g id="MH-Copy-2" transform="translate(122.000000, 39.000000)" fill="#7B8F98" fill-rule="nonzero">
            <path d="M37.6862949,22.300885 C39.3598639,18.0884956 42.3970818,9.2300885 43.5747785,5.26548673 C43.3268423,9.47787611 42.5830339,20.5663717 42.5830339,29.3628319 L42.5830339,46.5221239 C42.5830339,48.1946903 43.8227146,49 45.4962836,49 C47.1078686,49 48.3475494,48.1946903 48.3475494,46.5221239 L48.3475494,3.65486726 C48.3475494,1.42477876 46.7359644,0 44.442555,0 C41.7152573,0 40.2896245,0.92920354 39.2978799,3.40707965 L28.0787691,31.7787611 C26.6531362,35.3097345 24.7936151,40.699115 24.1737747,43.4247788 C23.6159183,40.7610619 21.5704451,34.9380531 20.3307644,31.9026549 L8.92570142,3.28318584 C7.99594086,0.991150442 6.69427607,0 3.96697841,0 C1.61158498,0 0,1.42477876 0,3.65486726 L0,46.5221239 C0,48.1946903 1.17769672,49 2.85126573,49 C4.58681879,49 5.7645155,48.1946903 5.7645155,46.5221239 L5.7645155,29.300885 C5.7645155,20.5663717 5.02070705,9.3539823 4.83475494,5.32743363 C6.01245165,9.16814159 8.98768546,18.1504425 10.7852226,22.6106195 L20.1448122,46.0884956 C21.0125888,48.2566372 22.1902855,49 24.1117906,49 C26.0952799,49 27.2109925,48.2566372 28.0787691,46.1504425 L37.6862949,22.300885 Z" id="Path"></path>
            <path d="M79.0495324,20.5663717 L55.3390226,20.5663717 C53.8507863,20.5663717 52.6443323,21.7728256 52.6443323,23.2610619 C52.6443323,24.7492983 53.8507863,25.9557522 55.3390226,25.9557522 L79.0495324,25.9557522 L79.0495324,25.9557522 L79.0495324,46.460177 C79.0495324,48.1327434 80.3511972,49 82.1487343,49 C83.7603192,49 85,48.1327434 85,46.460177 L85,2.53982301 C85,0.805309735 83.7603192,0 82.1487343,0 C80.3511972,0 79.0495324,0.805309735 79.0495324,2.53982301 L79.0495324,20.5663717 Z" id="Path"></path>
        </g>
        <text id="ub" fill="#7B8F98" fill-rule="nonzero" font-family="HiraMaruProN-W4, Hiragino Maru Gothic ProN" font-size="62.3189592" font-weight="normal" letter-spacing="-3.98849058">
            <tspan x="208" y="88">ub</tspan>
        </text>
    </g>
</svg>