<?xml version="1.0" encoding="utf-8"?>
<!-- Generator: Adobe Illustrator 27.4.1, SVG Export Plug-In . SVG Version: 6.00 Build 0)  -->
<svg version="1.1" id="Office-Drawer--Streamline-Ultimate"
	 xmlns="http://www.w3.org/2000/svg" xmlns:xlink="http://www.w3.org/1999/xlink" x="0px" y="0px" viewBox="0 0 24 24"
	 style="enable-background:new 0 0 24 24;" xml:space="preserve">
<style type="text/css">
	.st0{fill:#2859C5;}
	.st1{fill:#8FBFFA;}
</style>
<g id="Office-Drawer--Streamline-Ultimate.svg">
	<path class="st0" d="M22.5,13.5h-21C0.7,13.5,0,14.2,0,15v7c0,0.8,0.7,1.5,1.5,1.5h21c0.8,0,1.5-0.7,1.5-1.5v-7
		C24,14.2,23.3,13.5,22.5,13.5z M15.5,16.8c0,0.4-0.3,0.7-0.8,0.8H9.2c-0.4,0-0.8-0.3-0.8-0.8S8.8,16,9.2,16h5.5
		C15.2,16,15.5,16.3,15.5,16.8z"/>
	<path class="st1" d="M3,12c0.6,0,1-0.4,1-1V8c0-0.3,0.2-0.5,0.5-0.5h7.4c0.1,0,0.2,0,0.2,0.1l1.1,1.5c0.2,0.3,0.5,0.4,0.8,0.4h5.5
		c0.3,0,0.5,0.2,0.5,0.5v1c0,0.6,0.4,1,1,1s1-0.4,1-1V9.5c0-1.1-0.9-2-2-2h-5.5l-0.9-1.2c-0.4-0.5-1-0.8-1.6-0.8H4c-1.1,0-2,0.9-2,2
		V11C2,11.6,2.4,12,3,12z"/>
	<path class="st1" d="M3,4.5c0.6,0,1-0.4,1-1V3c0-0.3,0.2-0.5,0.5-0.5h7.4c0.1,0,0.2,0,0.2,0.1l1.1,1.5c0.2,0.3,0.5,0.4,0.8,0.4h6
		c0,0.6,0.4,1,1,1s1-0.4,1-1c0-1.1-0.9-2-2-2h-5.5l-0.9-1.2c-0.4-0.5-1-0.8-1.6-0.8H4c-1.1,0-2,0.9-2,2v1C2,4.1,2.4,4.5,3,4.5z"/>
</g>
</svg>
