<?xml version="1.0" encoding="utf-8"?>
<!-- Generator: Adobe Illustrator 13.0.0, SVG Export Plug-In . SVG Version: 6.00 Build 14948)  -->
<!DOCTYPE svg PUBLIC "-//W3C//DTD SVG 1.1//EN" "http://www.w3.org/Graphics/SVG/1.1/DTD/svg11.dtd">
<svg version="1.1" id="LogoD_x5F_6" xmlns="http://www.w3.org/2000/svg" xmlns:xlink="http://www.w3.org/1999/xlink" x="0px"
	 y="0px" width="366.104px" height="77.716px" viewBox="0 0 366.104 77.716" enable-background="new 0 0 366.104 77.716"
	 xml:space="preserve">
<g>
	<path d="M53.691,7.463V6.22l-5.389,2.901l-5.39-2.901v1.213l0,0v0.001c0,0,1.243,0.858,1.243,2.518
		c0,1.658-1.243,2.518-1.243,2.518v1.215h10.778v-1.245c0,0-1.242-0.829-1.242-2.487C52.449,8.292,53.691,7.463,53.691,7.463z
		 M53.691,17.413V16.17H42.913v1.213l0,0l0,0c0,0,1.243,0.86,1.243,2.519c0,1.659-1.243,2.519-1.243,2.519v1.215h10.778V22.39
		c0,0-1.242-0.829-1.242-2.488C52.449,18.243,53.691,17.413,53.691,17.413z M4.352,16.584c5.805,0,12.024-5.854,21.976-7.047
		c5.819-0.699,9.973,1.559,12.024,2.072c1.658,0.414,2.902,0,2.902-1.658c0-1.793-2.336-2.412-3.317-2.902
		C37.107,6.633,31.67,4.284,24.668,5.39c-7.877,1.243-16.17,6.634-20.316,7.049C4.352,14.512,4.352,14.926,4.352,16.584z
		 M92.253,12.438c-4.146-0.415-12.438-5.806-20.317-7.049c-7.001-1.105-12.439,1.243-13.268,1.659
		c-0.98,0.49-3.318,1.109-3.318,2.902c0,1.658,1.245,2.072,2.904,1.658c2.051-0.514,6.205-2.771,12.023-2.072
		c9.95,1.193,16.17,7.047,21.976,7.047C92.253,14.926,92.253,14.512,92.253,12.438z M4.352,26.535
		c5.805,0,12.024-5.854,21.976-7.048c5.819-0.698,9.973,1.56,12.024,2.073c1.658,0.414,2.902,0,2.902-1.659
		c0-1.793-2.336-2.411-3.317-2.901c-0.829-0.416-6.267-2.765-13.269-1.659c-7.877,1.243-16.17,6.634-20.316,7.049
		C4.352,24.463,4.352,24.877,4.352,26.535z M92.253,22.39c-4.146-0.415-12.438-5.806-20.317-7.049
		C64.935,14.235,59.496,16.584,58.668,17c-0.98,0.49-3.318,1.108-3.318,2.901c0,1.659,1.245,2.073,2.904,1.659
		c2.051-0.514,6.205-2.771,12.023-2.073c9.95,1.194,16.17,7.048,21.976,7.048C92.253,24.877,92.253,24.463,92.253,22.39z
		 M53.691,27.364v-1.243H42.913v1.213l0,0l0,0c0,0,1.243,0.859,1.243,2.519c0,1.658-1.243,2.519-1.243,2.519v1.214h10.778v-1.244
		c0,0-1.242-0.83-1.242-2.488C52.449,28.193,53.691,27.364,53.691,27.364z M53.691,37.315V36.07H42.913v1.215l0,0l0,0
		c0,0,1.243,0.859,1.243,2.518c0,1.659-1.243,2.519-1.243,2.519v1.215h10.778v-1.245c0,0-1.242-0.829-1.242-2.488
		C52.449,38.145,53.691,37.315,53.691,37.315z M4.352,36.486c5.805,0,12.024-5.854,21.976-7.048
		c5.819-0.698,9.973,1.56,12.024,2.072c1.658,0.415,2.902,0,2.902-1.658c0-1.793-2.336-2.411-3.317-2.901
		c-0.829-0.416-6.267-2.766-13.269-1.659c-7.877,1.243-16.17,6.634-20.316,7.049C4.352,34.414,4.352,34.828,4.352,36.486z
		 M92.253,32.341c-4.146-0.415-12.438-5.806-20.317-7.049c-7.001-1.106-12.439,1.243-13.268,1.659
		c-0.98,0.49-3.318,1.108-3.318,2.901c0,1.658,1.245,2.073,2.904,1.658c2.051-0.513,6.205-2.771,12.023-2.072
		c9.95,1.194,16.17,7.048,21.976,7.048C92.253,34.828,92.253,34.414,92.253,32.341z M4.352,46.437
		c5.805,0,12.024-5.853,21.976-7.047c5.819-0.698,9.973,1.56,12.024,2.072c1.658,0.415,2.902,0,2.902-1.659
		c0-1.793-2.336-2.41-3.317-2.9c-0.829-0.416-6.267-2.766-13.269-1.66c-7.877,1.244-16.17,6.635-20.316,7.049
		C4.352,44.365,4.352,44.779,4.352,46.437z M92.253,42.291c-4.146-0.414-12.438-5.805-20.317-7.049
		c-7.001-1.105-12.439,1.244-13.268,1.66c-0.98,0.49-3.318,1.107-3.318,2.9c0,1.659,1.245,2.074,2.904,1.659
		c2.051-0.513,6.205-2.771,12.023-2.072c9.95,1.194,16.17,7.047,21.976,7.047C92.253,44.779,92.253,44.365,92.253,42.291z
		 M53.691,47.265v-1.244H42.913v1.215l0,0l0,0c0,0,1.243,0.859,1.243,2.518c0,1.66-1.243,2.52-1.243,2.52v1.215h10.778v-1.246
		c0,0-1.242-0.828-1.242-2.488C52.449,48.095,53.691,47.265,53.691,47.265z M53.691,57.216v-1.244H42.913v1.215l0,0l0,0
		c0,0,1.243,0.859,1.243,2.518s-1.243,2.52-1.243,2.52v1.213h10.778v-1.244c0,0-1.242-0.83-1.242-2.488S53.691,57.216,53.691,57.216
		z M4.352,56.388c5.805,0,12.024-5.854,21.976-7.049c5.819-0.697,9.973,1.561,12.024,2.074c1.658,0.412,2.902,0,2.902-1.66
		c0-1.793-2.336-2.412-3.317-2.9c-0.829-0.416-6.267-2.765-13.269-1.66c-7.877,1.244-16.17,6.633-20.316,7.049
		C4.352,54.314,4.352,54.73,4.352,56.388z M92.253,52.242c-4.146-0.416-12.438-5.805-20.317-7.049
		c-7.001-1.105-12.439,1.244-13.268,1.66c-0.98,0.488-3.318,1.107-3.318,2.9c0,1.66,1.245,2.072,2.904,1.66
		c2.051-0.514,6.205-2.771,12.023-2.074c9.95,1.195,16.17,7.049,21.976,7.049C92.253,54.73,92.253,54.314,92.253,52.242z
		 M27.57,60.949c-8.291,0-11.961,2.902-18.657,4.146c-6.206,1.154-8.81,0.416-8.81,0.416V7.878H0c2.59,0,6.562-1.306,10.156-2.903
		C17.619,1.658,22.492,0,31.199,0c9.121,0,17,5.648,17,5.648S56.077,0,65.198,0c8.706,0,13.786,1.658,21.249,4.975
		c3.594,1.598,7.359,2.903,9.951,2.903h0.104v57.633c0,0-2.604,0.738-8.811-0.416c-6.696-1.244-10.365-4.146-18.657-4.146
		c-8.294,0-12.065,2.488-12.065,2.488c1.367,1.244-0.374,2.902-2.032,2.902c-1.659,0-6.634,0-6.634,0s-4.561,0-6.635,0
		c-1.658,0-3.399-1.658-2.031-2.902C39.637,63.437,35.864,60.949,27.57,60.949z"/>
	<text transform="matrix(1 0 0 1 100.9697 60.8013)"><tspan x="0" y="0" font-family="'EurostileBold'" font-size="67.6624">Pixe</tspan><tspan x="121.019" y="0" font-family="'EurostileBold'" font-size="67.6624" letter-spacing="-1">l</tspan><tspan x="134.665" y="0" font-family="'EurostileBold'" font-size="67.6624">Med</tspan></text>
</g>
</svg>
