<?xml version="1.0" encoding="utf-8"?>
<!-- Generator: Adobe Illustrator 27.4.1, SVG Export Plug-In . SVG Version: 6.00 Build 0)  -->
<svg version="1.1" id="Layer_1" xmlns="http://www.w3.org/2000/svg" xmlns:xlink="http://www.w3.org/1999/xlink" x="0px" y="0px"
	 viewBox="0 0 140 124" style="enable-background:new 0 0 140 124;" xml:space="preserve">
<style type="text/css">
	.st0{fill:#F0BD1A;stroke:#000000;stroke-width:2;stroke-miterlimit:10;}
	.st1{fill:#319A66;stroke:#000000;stroke-width:2;stroke-miterlimit:10;}
	.st2{fill:#E32F26;stroke:#000000;stroke-width:2;stroke-miterlimit:10;}
	.st3{fill:#C75728;stroke:#000000;stroke-width:2;stroke-miterlimit:10;}
	.st4{fill:#3167B1;stroke:#000000;stroke-width:2;stroke-miterlimit:10;}
	.st5{fill:#E96A26;stroke:#000000;stroke-width:2;stroke-miterlimit:10;}
	.st6{fill:#B1B8D3;}
	.st7{fill:#ED1C24;}
	.st8{fill:#2B67B2;}
	.st9{fill:#F7BD16;}
	.st10{fill:#4A70B7;}
	.st11{fill:none;stroke:#486CB4;stroke-width:5;stroke-linecap:round;stroke-linejoin:round;stroke-miterlimit:10;}
	.st12{fill:none;stroke:#000000;stroke-width:3;stroke-linecap:round;stroke-linejoin:round;stroke-miterlimit:10;}
	.st13{fill:none;stroke:#000000;stroke-width:5;stroke-linecap:round;stroke-linejoin:round;stroke-miterlimit:10;}
	.st14{fill:none;stroke:#000000;stroke-width:2;stroke-linecap:round;stroke-linejoin:round;stroke-miterlimit:10;}
</style>
<rect x="74.1" y="9.3" class="st0" width="18.7" height="18.7"/>
<rect x="74.1" y="27.9" class="st1" width="18.7" height="18.7"/>
<rect x="74.1" y="46.6" class="st2" width="18.7" height="18.7"/>
<rect x="92.8" y="46.6" class="st3" width="18.7" height="18.7"/>
<rect x="111.4" y="46.6" class="st4" width="18.7" height="18.7"/>
<rect x="92.8" y="27.9" class="st5" width="18.7" height="18.7"/>
<g>
	<path class="st6" d="M18.6,90.2v-3.3c0.6,0.5,1.2,0.9,1.9,1.1s1.4,0.4,2.1,0.4c0.4,0,0.8,0,1.1-0.1c0.3-0.1,0.6-0.2,0.8-0.3
		s0.4-0.3,0.5-0.5c0.1-0.2,0.1-0.4,0.1-0.6c0-0.3-0.1-0.5-0.2-0.8c-0.2-0.2-0.4-0.4-0.7-0.6s-0.6-0.4-1-0.5s-0.8-0.4-1.3-0.5
		c-1.1-0.5-2-1.1-2.6-1.8c-0.6-0.7-0.9-1.5-0.9-2.5c0-0.8,0.1-1.4,0.5-2s0.7-1,1.3-1.4s1.1-0.6,1.8-0.8c0.7-0.2,1.4-0.2,2.2-0.2
		s1.4,0,2,0.1c0.6,0.1,1.1,0.2,1.6,0.4v3.1c-0.2-0.2-0.5-0.3-0.8-0.5s-0.6-0.2-0.9-0.3c-0.3-0.1-0.6-0.1-0.9-0.2
		c-0.3,0-0.6-0.1-0.9-0.1c-0.4,0-0.7,0-1,0.1c-0.3,0.1-0.6,0.2-0.8,0.3s-0.4,0.3-0.5,0.5C22,79.5,22,79.7,22,79.9
		c0,0.2,0.1,0.5,0.2,0.7s0.3,0.4,0.5,0.5c0.2,0.2,0.5,0.3,0.9,0.5s0.7,0.3,1.2,0.5c0.6,0.2,1.1,0.5,1.6,0.8c0.5,0.3,0.9,0.6,1.2,0.9
		s0.6,0.8,0.8,1.2c0.2,0.5,0.3,1,0.3,1.6c0,0.8-0.2,1.5-0.5,2.1s-0.7,1-1.3,1.4c-0.5,0.4-1.1,0.6-1.9,0.7S23.5,91,22.7,91
		c-0.8,0-1.6-0.1-2.3-0.2C19.7,90.7,19.1,90.5,18.6,90.2z"/>
	<path class="st6" d="M34.5,90.8h-3.2V75.2h3.2V90.8z"/>
	<path class="st6" d="M39.4,78.6c-0.5,0-1-0.2-1.3-0.5c-0.4-0.3-0.5-0.7-0.5-1.2c0-0.5,0.2-0.9,0.5-1.2s0.8-0.5,1.3-0.5
		c0.5,0,1,0.1,1.4,0.5s0.5,0.7,0.5,1.2s-0.2,0.9-0.5,1.2S39.9,78.6,39.4,78.6z M41,90.8h-3.2V80.3H41V90.8z"/>
	<path class="st6" d="M52.2,90.4C51.4,90.8,50.4,91,49,91c-1.6,0-2.9-0.5-3.9-1.5s-1.5-2.2-1.5-3.8c0-1.8,0.5-3.2,1.6-4.2
		s2.5-1.5,4.3-1.5c1.2,0,2.1,0.2,2.7,0.5v2.8c-0.7-0.5-1.4-0.8-2.3-0.8c-0.9,0-1.7,0.3-2.2,0.8c-0.5,0.5-0.8,1.3-0.8,2.2
		c0,0.9,0.3,1.7,0.8,2.2s1.2,0.8,2.1,0.8c0.8,0,1.6-0.2,2.4-0.8L52.2,90.4L52.2,90.4z"/>
	<path class="st6" d="M64.2,86.4h-6.9c0.1,1.5,1.1,2.3,2.9,2.3c1.2,0,2.2-0.3,3-0.8v2.3c-1,0.5-2.2,0.8-3.8,0.8c-1.7,0-3-0.5-4-1.4
		s-1.4-2.2-1.4-3.9c0-1.7,0.5-3.1,1.5-4.1S58,80,59.4,80c1.5,0,2.7,0.5,3.5,1.4c0.8,0.9,1.3,2.1,1.3,3.7V86.4z M61.2,84.5
		c0-1.5-0.6-2.3-1.8-2.3c-0.5,0-1,0.2-1.4,0.6c-0.4,0.4-0.6,1-0.7,1.6L61.2,84.5L61.2,84.5z"/>
	<path class="st6" d="M73.6,83.2c-0.4-0.2-0.8-0.3-1.4-0.3c-0.7,0-1.2,0.3-1.6,0.8c-0.4,0.5-0.6,1.2-0.6,2.1v5h-3.2V80.3H70v2h0
		c0.5-1.4,1.4-2.1,2.8-2.1c0.3,0,0.6,0,0.8,0.1L73.6,83.2L73.6,83.2z"/>
	<path class="st7" d="M86.8,76.1v2.6h-1.2v9.6h1.2v2.6H81v-2.6h1.2v-9.6H81v-2.6H86.8z"/>
	<path class="st8" d="M89.4,90.8V76.1h5.2c5.2,0,7.8,2.4,7.8,7.2c0,2.3-0.7,4.1-2.1,5.5c-1.4,1.4-3.3,2-5.7,2L89.4,90.8L89.4,90.8z
		 M92.7,78.8v9.3h1.6c1.4,0,2.6-0.4,3.4-1.3c0.8-0.9,1.2-2,1.2-3.5c0-1.4-0.4-2.5-1.2-3.3c-0.8-0.8-2-1.2-3.4-1.2L92.7,78.8
		L92.7,78.8z"/>
	<path class="st9" d="M116,90.3c-1.1,0.5-2.5,0.8-4.2,0.8c-2.3,0-4-0.7-5.3-2s-1.9-3.1-1.9-5.3c0-2.4,0.7-4.3,2.2-5.7
		c1.5-1.5,3.3-2.2,5.7-2.2c1.4,0,2.6,0.2,3.6,0.5v3.2c-1-0.6-2.1-0.9-3.4-0.9c-1.4,0-2.5,0.4-3.3,1.3s-1.3,2-1.3,3.5
		c0,1.4,0.4,2.5,1.2,3.4c0.8,0.8,1.9,1.3,3.2,1.3c1.3,0,2.5-0.3,3.5-0.9L116,90.3L116,90.3z"/>
	<path class="st10" d="M33.5,114.5L33.5,114.5l0,1.5h-1.7v-15.5h1.7v6.9h0c0.8-1.4,2-2.1,3.6-2.1c1.4,0,2.4,0.5,3.2,1.4
		s1.1,2.2,1.1,3.8c0,1.8-0.4,3.2-1.3,4.2s-2,1.6-3.5,1.6C35.2,116.2,34.2,115.6,33.5,114.5z M33.4,110.2v1.5c0,0.9,0.3,1.6,0.9,2.2
		c0.6,0.6,1.3,0.9,2.1,0.9c1,0,1.8-0.4,2.4-1.2c0.6-0.8,0.9-1.9,0.9-3.2c0-1.2-0.3-2.1-0.8-2.8s-1.3-1-2.2-1c-1,0-1.8,0.3-2.4,1
		C33.7,108.3,33.4,109.2,33.4,110.2z"/>
	<path class="st10" d="M49.6,107.2c-0.3-0.2-0.7-0.3-1.3-0.3c-0.7,0-1.3,0.3-1.8,1c-0.5,0.7-0.7,1.6-0.7,2.8v5.4h-1.7v-10.5h1.7v2.2
		h0c0.2-0.7,0.6-1.3,1.1-1.7c0.5-0.4,1-0.6,1.6-0.6c0.4,0,0.8,0,1,0.1L49.6,107.2L49.6,107.2z"/>
	<path class="st10" d="M55.8,116.2c-1.5,0-2.8-0.5-3.7-1.5s-1.4-2.3-1.4-3.9c0-1.8,0.5-3.1,1.5-4.1c1-1,2.3-1.5,3.9-1.5
		c1.6,0,2.8,0.5,3.7,1.5c0.9,1,1.3,2.3,1.3,4c0,1.7-0.5,3-1.4,4C58.6,115.7,57.4,116.2,55.8,116.2z M55.9,106.6
		c-1.1,0-1.9,0.4-2.6,1.1s-0.9,1.8-0.9,3c0,1.2,0.3,2.2,1,2.9c0.6,0.7,1.5,1.1,2.5,1.1c1.1,0,1.9-0.4,2.5-1.1c0.6-0.7,0.9-1.7,0.9-3
		c0-1.3-0.3-2.3-0.9-3C57.8,107,57,106.6,55.9,106.6z"/>
	<path class="st10" d="M76.9,105.5L73.8,116H72l-2.2-7.5c-0.1-0.3-0.1-0.6-0.2-1h0c0,0.2-0.1,0.6-0.2,1l-2.4,7.5h-1.7l-3.2-10.5H64
		l2.2,7.9c0.1,0.2,0.1,0.5,0.1,0.9h0.1c0-0.3,0.1-0.6,0.2-1l2.4-7.9h1.5l2.2,7.9c0.1,0.2,0.1,0.6,0.1,0.9h0.1c0-0.3,0.1-0.6,0.2-0.9
		l2.1-7.9L76.9,105.5L76.9,105.5z"/>
	<path class="st10" d="M78.2,115.6v-1.8c0.9,0.7,1.9,1,3,1c1.5,0,2.2-0.5,2.2-1.5c0-0.3-0.1-0.5-0.2-0.7s-0.3-0.4-0.5-0.5
		c-0.2-0.1-0.5-0.3-0.8-0.4s-0.6-0.2-0.9-0.4c-0.5-0.2-0.9-0.4-1.2-0.6s-0.6-0.4-0.9-0.6c-0.2-0.2-0.4-0.5-0.5-0.8s-0.2-0.6-0.2-1.1
		c0-0.5,0.1-0.9,0.3-1.3s0.5-0.7,0.9-1c0.4-0.3,0.8-0.5,1.3-0.6c0.5-0.1,1-0.2,1.5-0.2c0.9,0,1.7,0.2,2.4,0.5v1.7
		c-0.8-0.5-1.7-0.8-2.7-0.8c-0.3,0-0.6,0-0.9,0.1c-0.2,0.1-0.5,0.2-0.6,0.3c-0.2,0.1-0.3,0.3-0.4,0.5s-0.1,0.4-0.1,0.6
		c0,0.3,0,0.5,0.1,0.7s0.2,0.4,0.4,0.5c0.2,0.1,0.4,0.3,0.7,0.4s0.6,0.2,0.9,0.4c0.5,0.2,0.9,0.4,1.2,0.5s0.7,0.4,0.9,0.6
		c0.3,0.2,0.5,0.5,0.6,0.8s0.2,0.7,0.2,1.1c0,0.5-0.1,1-0.3,1.4s-0.5,0.7-0.9,1s-0.8,0.4-1.3,0.6s-1,0.2-1.6,0.2
		C80,116.2,79,116,78.2,115.6z"/>
	<path class="st10" d="M96.2,111.1h-7.4c0,1.2,0.3,2.1,0.9,2.7c0.6,0.6,1.4,1,2.5,1c1.2,0,2.3-0.4,3.3-1.2v1.6c-0.9,0.7-2.1,1-3.7,1
		c-1.5,0-2.6-0.5-3.5-1.4c-0.9-1-1.3-2.3-1.3-4c0-1.6,0.5-3,1.4-4c0.9-1,2.1-1.5,3.5-1.5c1.4,0,2.4,0.4,3.2,1.3
		c0.8,0.9,1.1,2.1,1.1,3.7L96.2,111.1L96.2,111.1z M94.5,109.7c0-1-0.2-1.7-0.7-2.3c-0.5-0.5-1.1-0.8-1.9-0.8c-0.8,0-1.5,0.3-2,0.9
		s-0.9,1.3-1,2.2L94.5,109.7L94.5,109.7z"/>
	<path class="st10" d="M104.2,107.2c-0.3-0.2-0.7-0.3-1.3-0.3c-0.7,0-1.3,0.3-1.8,1c-0.5,0.7-0.7,1.6-0.7,2.8v5.4h-1.7v-10.5h1.7
		v2.2h0c0.2-0.7,0.6-1.3,1.1-1.7c0.5-0.4,1-0.6,1.6-0.6c0.4,0,0.8,0,1,0.1L104.2,107.2L104.2,107.2z"/>
</g>
<path class="st11" d="M65.1,10.3c0,0-18.9-8.2-23.8,10.2c-22.7-7-22.5,13.6-22.5,13.6c-14.4,6.3-14.6,25,2.5,30.6h43.8"/>
<path class="st12" d="M61.5,37.3c0,5.6-4.6,10.2-10.2,10.2c-2.8,0-5.4-1.1-7.2-3s-3-4.4-3-7.2c0-5.6,4.6-10.2,10.2-10.2
	S61.5,31.6,61.5,37.3z"/>
<line class="st13" x1="34.6" y1="53.7" x2="43.2" y2="45.3"/>
<path class="st14" d="M45.8,35.3c3.1-6,8.8-3.3,8.8-3.3"/>
</svg>
