<svg width="100%" height="100%" viewBox="0 0 244 897" version="1.1" xmlns="http://www.w3.org/2000/svg" xmlns:xlink="http://www.w3.org/1999/xlink" xml:space="preserve" style="fill-rule:evenodd;clip-rule:evenodd;stroke-linejoin:round;stroke-miterlimit:1.41421;">
    <g transform="matrix(1,0,0,1,-236.516,-124.795)">
        <g id="bodies">
            <g>
                <g opacity="0.610001">
                    <g>
                        <clipPath id="_clip1">
                            <rect x="236.516" y="235.158" width="243.145" height="786.506"/>
                        </clipPath>
                        <g clip-path="url(#_clip1)">
                            <path d="M380.383,236.258L380.295,250.394C382.026,266.903 395.196,281.231 410.514,289.847L416.813,293.391C416.965,293.476 417.126,293.545 417.294,293.598L430.423,297.669C443.005,301.571 454.464,311.152 457.445,320.135C460.067,328.038 458.082,420.726 457.567,442.912L457.62,442.912C457.552,445.947 457.511,447.662 457.511,447.662C457.505,448.5 457.601,449.335 457.795,450.149L466.035,484.76C466.071,484.909 466.091,485.06 466.097,485.213L469.091,568.266L469.95,569.125L470.161,574.973C470.165,575.081 470.176,575.188 470.195,575.294L478.502,622.156C478.526,622.29 478.538,622.425 478.538,622.561L478.538,640.511C478.538,640.989 478.39,641.456 478.115,641.846L472.064,650.434C471.945,650.604 471.803,650.757 471.642,650.889L455.959,663.794C454.637,664.882 452.634,664.212 452.232,662.55L451.707,660.384C451.538,659.685 451.702,658.948 452.152,658.387L461.19,647.118C461.562,646.655 461.741,646.068 461.693,645.476L460.308,628.735C460.184,627.236 457.503,627.508 457.503,627.508C457.503,637.811 455.726,644.357 455.726,644.357C455.761,645.099 455.439,645.814 454.858,646.278C453.416,647.433 451.268,646.518 451.1,644.678C451.1,644.678 448.058,613.771 448.917,611.195L453.927,588.556C454.02,588.199 454.026,587.826 453.945,587.467C453.945,587.467 428.947,483.913 428.311,470.388C427.674,456.862 426.25,400.843 426.594,391.8C426.659,390.083 425.735,385.79 427.452,378.922L421.442,396.952C419.508,406.48 417.256,462.66 417.256,462.66C417.69,479.495 432.604,526.195 432.604,526.195C432.67,526.42 439.389,543.548 441.184,554.882C442.98,566.215 441.874,605.357 440.331,618.064C438.788,630.771 411.998,722.811 414.573,747.71C414.573,747.71 419.28,762.104 421.388,786.044C423.495,809.984 406.846,866.195 406.846,866.195L387.15,944.981C387.116,945.116 387.094,945.255 387.085,945.394L385.769,965.791L385.399,971.523C385.388,971.707 385.398,971.893 385.43,972.075L387.842,985.742C387.917,986.17 388.111,986.568 388.402,986.89L403.294,1003.44C403.372,1003.52 403.458,1003.61 403.549,1003.68L410.375,1009.27C411.598,1010.27 411.484,1012.17 410.152,1013.02L403.9,1017C403.579,1017.2 403.214,1017.32 402.835,1017.35L389.674,1018.38L372.575,1019.45C372.527,1019.45 372.479,1019.45 372.43,1019.45L368.398,1019.45C367.291,1019.45 366.338,1018.67 366.123,1017.58L363.099,1002.27C363.072,1002.13 363.057,1002 363.055,1001.86L362.2,947.009L364.776,803.572L366.49,754.677C366.492,754.63 366.492,754.582 366.491,754.534L365.315,710.791L362.2,595.741C362.2,595.741 359.624,600.034 354.043,595.754L350.928,711.649L349.752,755.392C349.751,755.44 349.751,755.488 349.753,755.536L351.468,804.43L354.043,947.867L353.188,1002.72C353.186,1002.85 353.171,1002.99 353.144,1003.13L350.12,1018.44C349.905,1019.53 348.952,1020.31 347.845,1020.31L343.813,1020.31C343.764,1020.31 343.716,1020.31 343.668,1020.31L326.569,1019.24L313.408,1018.21C313.029,1018.18 312.664,1018.06 312.343,1017.85L306.091,1013.88C304.759,1013.03 304.645,1011.12 305.868,1010.12L312.694,1004.54C312.785,1004.46 312.871,1004.38 312.95,1004.3L327.841,987.749C328.132,987.426 328.326,987.028 328.401,986.601L330.813,972.933C330.845,972.751 330.855,972.566 330.844,972.381L330.474,966.649L329.158,946.252C329.149,946.113 329.127,945.975 329.093,945.839L309.397,867.053C309.397,867.053 292.748,810.842 294.855,786.902C296.963,762.963 301.67,748.569 301.67,748.569C304.245,723.67 277.455,631.629 275.912,618.923C274.369,606.216 273.263,567.074 275.059,555.74C276.854,544.407 283.573,527.278 283.639,527.054C283.639,527.054 298.553,480.354 298.987,463.519C298.987,463.519 296.735,407.339 294.801,397.81L288.791,379.78C290.508,386.649 289.584,390.942 289.649,392.659C289.993,401.701 288.569,457.72 287.932,471.246C287.296,484.772 262.298,588.326 262.298,588.326C262.217,588.685 262.223,589.058 262.316,589.414L267.326,612.054C268.185,614.63 265.143,645.536 265.143,645.536C264.975,647.377 262.827,648.291 261.385,647.137C260.804,646.672 260.482,645.958 260.517,645.215C260.517,645.215 258.74,638.67 258.74,628.367C258.74,628.367 256.059,628.095 255.935,629.593L254.55,646.335C254.502,646.926 254.681,647.514 255.053,647.977L264.091,659.246C264.541,659.806 264.705,660.544 264.536,661.242L264.011,663.408C263.609,665.071 261.606,665.74 260.285,664.653L244.601,651.748C244.44,651.616 244.298,651.463 244.179,651.293L238.128,642.705C237.853,642.314 237.705,641.848 237.705,641.37L237.705,623.419C237.705,623.284 237.717,623.148 237.741,623.015L246.048,576.153C246.067,576.047 246.078,575.939 246.082,575.832L246.293,569.983L247.152,569.125L250.146,486.072C250.152,485.919 250.172,485.767 250.208,485.618L258.448,451.008C258.642,450.193 258.738,449.358 258.732,448.521C258.732,448.521 258.691,446.805 258.623,443.771L258.676,443.771C258.161,421.585 256.176,328.897 258.798,320.994C261.779,312.01 273.238,302.43 285.82,298.528L298.949,294.456C299.117,294.404 299.278,294.335 299.43,294.249L305.729,290.706C321.047,282.089 334.217,267.762 335.948,251.253L336.078,235.457C336.078,235.457 339.398,238.765 344.485,243.598C347.154,246.133 350.917,249.377 357.029,249.736C364.45,250.173 370.609,245.633 374.778,241.863C378.256,238.717 380.383,236.258 380.383,236.258" style="fill:white;fill-rule:nonzero;"/>
                            <path d="M380.229,236.643C378.812,238.225 377.319,239.727 375.773,241.179C374.135,242.717 372.421,244.191 370.574,245.489C368.725,246.78 366.748,247.916 364.626,248.716C363.566,249.118 362.473,249.434 361.359,249.654C360.25,249.866 359.097,249.991 357.967,249.979C356.853,249.997 355.687,249.861 354.58,249.657C353.46,249.45 352.368,249.103 351.317,248.668C349.209,247.795 347.311,246.482 345.615,244.99C343.922,243.49 342.354,241.89 340.721,240.345L335.867,235.67L336.378,235.46L336.303,251.256L336.302,251.291C335.787,256.151 334.31,260.892 332.088,265.233C329.881,269.586 327.006,273.578 323.715,277.164C320.423,280.754 316.735,283.972 312.772,286.796C308.824,289.665 304.508,291.937 300.321,294.329C300.043,294.483 299.829,294.616 299.498,294.787C299.144,294.952 298.857,295.011 298.573,295.108L296.843,295.65L293.38,296.733L286.456,298.901C281.874,300.299 277.521,302.384 273.527,305.018C269.548,307.657 265.89,310.839 263.006,314.613C261.584,316.506 260.357,318.557 259.565,320.751C259.154,321.775 259.074,322.968 258.935,324.153C258.82,325.341 258.741,326.542 258.672,327.743C258.417,332.553 258.33,337.387 258.262,342.217C258.203,347.049 258.184,351.884 258.189,356.718C258.199,366.388 258.291,376.059 258.417,385.729C258.676,405.071 259.07,424.413 259.548,443.751C259.56,444.232 259.18,444.631 258.699,444.643C258.694,444.643 258.682,444.643 258.676,444.643L258.624,444.644L259.496,443.751L259.593,447.7C259.688,448.997 259.519,450.587 259.163,451.836L257.347,459.525L253.715,474.902L251.898,482.591L251.444,484.513C251.32,485.139 251.071,485.864 251.091,486.261L250.955,490.209L250.414,506L248.25,569.165C248.24,569.452 248.116,569.713 247.929,569.902L247.072,570.762L247.394,570.024L247.233,574.721L247.185,575.973L247.155,576.265L247.094,576.631L246.992,577.209L246.586,579.524L244.958,588.783L241.697,607.298L240.066,616.556L239.251,621.185L239.047,622.342L238.945,622.921L238.894,623.21C238.884,623.267 238.879,623.309 238.877,623.359L238.878,625.648L238.893,639.748L238.894,640.923L238.898,641.438C238.903,641.534 238.922,641.628 238.951,641.719C238.976,641.802 239.032,641.911 239.063,641.961L239.379,642.412L240.057,643.372L242.769,647.211L244.124,649.131L244.802,650.091L245.141,650.57C245.215,650.678 245.265,650.729 245.338,650.796L252.576,656.738L259.841,662.703C260.412,663.15 261.182,663.861 261.38,663.885C261.711,664.015 262.134,663.95 262.425,663.722C262.561,663.635 262.704,663.412 262.731,663.353C262.74,663.376 262.782,663.209 262.807,663.137L262.829,663.067C262.852,662.985 262.811,663.138 262.818,663.109L262.827,663.074L262.861,662.931L262.999,662.36L263.274,661.218L263.34,660.943C263.349,660.898 263.358,660.853 263.362,660.807C263.371,660.716 263.368,660.624 263.354,660.533C263.324,660.346 263.259,660.19 263.131,660.023L262.417,659.135L260.945,657.303L258,653.64L255.055,649.977L254.319,649.061C254.128,648.837 253.66,648.264 253.491,647.703C253.392,647.418 253.327,647.121 253.303,646.82C253.29,646.684 253.288,646.501 253.295,646.35L253.319,646.027L253.414,644.856L254.178,635.487L254.561,630.802L254.656,629.631L254.669,629.481C254.681,629.38 254.693,629.28 254.714,629.178C254.76,628.972 254.831,628.762 254.938,628.568C255.147,628.174 255.466,627.872 255.763,627.683C256.372,627.301 256.91,627.2 257.404,627.128C257.914,627.066 258.335,627.056 258.869,627.098C259.519,627.149 260.013,627.691 260.016,628.331L260.016,628.367C260.022,631.157 260.161,633.945 260.432,636.716C260.576,638.101 260.749,639.482 260.967,640.852C261.075,641.537 261.194,642.22 261.328,642.896L261.537,643.906L261.767,644.877L261.779,644.927C261.806,645.043 261.816,645.165 261.81,645.278C261.794,645.6 261.942,645.926 262.195,646.125L261.385,645.84C261.313,645.815 261.275,645.736 261.3,645.664C261.326,645.592 261.405,645.554 261.477,645.579C261.491,645.584 261.504,645.591 261.515,645.6L262.195,646.125C262.492,646.354 262.847,646.407 263.195,646.276C263.542,646.141 263.778,645.851 263.83,645.501L263.854,645.352L263.857,645.333C263.867,645.258 263.845,645.425 263.848,645.405L263.849,645.395L263.852,645.358L263.859,645.284L263.888,644.984L263.945,644.385L264.059,643.187L264.281,640.788L265.117,631.191C265.378,627.992 265.626,624.792 265.829,621.596C265.93,619.999 266.021,618.402 266.083,616.813C266.112,616.02 266.138,615.226 266.141,614.448C266.142,614.061 266.141,613.669 266.125,613.305C266.116,613.124 266.112,612.929 266.092,612.783L266.068,612.561C266.059,612.534 266.055,612.507 266.057,612.478L266.019,612.343L262.82,597.96L261.22,590.768L261.02,589.869L260.97,589.655C260.943,589.536 260.922,589.416 260.907,589.295C260.875,589.053 260.87,588.808 260.887,588.565C260.896,588.44 260.909,588.329 260.933,588.194L260.998,587.89L261.105,587.443L261.32,586.548L262.175,582.966L268.93,554.288C273.374,535.157 277.768,516.01 281.827,496.809C282.833,492.009 283.82,487.204 284.723,482.395C285.166,479.992 285.612,477.584 285.966,475.189C286.14,473.973 286.31,472.902 286.397,471.638C286.485,470.51 286.509,469.22 286.568,468.019C286.932,458.219 287.196,448.397 287.448,438.582C287.694,428.766 287.913,418.947 288.066,409.134C288.132,404.239 288.219,399.295 288.168,394.459L288.132,392.619C288.126,391.839 288.189,391.258 288.224,390.643C288.306,389.441 288.344,388.278 288.305,387.107C288.241,384.768 287.881,382.44 287.316,380.15C287.112,379.335 287.608,378.509 288.423,378.305C289.196,378.112 289.982,378.558 290.234,379.3L296.249,397.328L296.259,397.36C296.275,397.407 296.288,397.46 296.296,397.507C296.974,401.377 297.221,405.034 297.545,408.776C297.844,412.498 298.099,416.216 298.33,419.933C298.798,427.369 299.195,434.803 299.563,442.237L300.091,453.39L300.338,458.967L300.456,461.756L300.514,463.151L300.521,463.326L300.525,463.413L300.525,463.604L300.508,463.966L300.472,464.692C300.241,468.543 299.606,472.247 298.922,475.942C298.216,479.628 297.403,483.279 296.538,486.914C294.801,494.182 292.855,501.383 290.813,508.553C289.791,512.138 288.74,515.714 287.664,519.282L286.03,524.63L285.194,527.302L285.077,527.654L284.933,528.039L284.687,528.689L284.203,529.988C281.656,536.924 279.298,543.963 277.591,551.086C277.37,551.978 277.206,552.849 277.01,553.731C276.855,554.619 276.649,555.602 276.549,556.43C276.303,558.191 276.167,560.021 276.05,561.85C275.827,565.518 275.774,569.224 275.718,572.924C275.663,580.333 275.788,587.756 276.029,595.171C276.287,602.576 276.612,610.021 277.331,617.329L277.478,618.716C277.527,619.101 277.597,619.56 277.672,619.995C277.829,620.88 278.007,621.777 278.197,622.676C278.577,624.474 278.992,626.279 279.416,628.083L282.052,638.905L287.452,660.561C291.029,675.011 294.507,689.496 297.55,704.095C299.067,711.396 300.474,718.726 301.617,726.121C302.175,729.821 302.68,733.535 303.016,737.287C303.34,741.043 303.578,744.818 303.213,748.729C303.205,748.824 303.186,748.916 303.16,749.004L303.145,749.051C302.031,752.657 301.124,756.47 300.319,760.24C299.516,764.027 298.831,767.843 298.236,771.674C297.634,775.507 297.169,779.354 296.752,783.202C296.568,785.151 296.344,787.096 296.259,788.957C296.213,789.902 296.216,790.857 296.198,791.808C296.223,792.765 296.227,793.72 296.267,794.679C296.606,802.357 297.754,810.058 299.114,817.699C300.486,825.345 302.138,832.954 303.942,840.526C305.75,848.098 307.706,855.642 309.812,863.136L310.612,865.94L310.831,866.697L311.362,868.827L312.779,874.508L315.612,885.871L326.945,931.321L329.778,942.683L330.491,945.542C330.536,945.737 330.566,945.925 330.581,946.131L330.605,946.505L330.651,947.235L330.745,948.696L331.118,954.539L331.865,966.226L332.238,972.069C332.253,972.246 332.286,972.741 332.214,973.115L332.083,973.856L331.828,975.297L331.317,978.18L330.296,983.945L329.786,986.828C329.724,987.194 329.594,987.584 329.413,987.926C329.323,988.099 329.217,988.265 329.1,988.422C328.964,988.604 328.857,988.715 328.781,988.8L327.802,989.888L319.962,998.587L316.043,1002.94L314.083,1005.11C314.009,1005.19 314.076,1005.13 313.885,1005.32L313.753,1005.45C313.672,1005.52 313.746,1005.46 313.539,1005.64L313.397,1005.76L312.83,1006.22L311.697,1007.15L307.163,1010.85L306.88,1011.08L306.741,1011.2L306.687,1011.25C306.611,1011.32 306.555,1011.4 306.51,1011.48C306.418,1011.65 306.381,1011.86 306.411,1012.06C306.517,1012.51 306.562,1012.56 307.62,1013.21L312.557,1016.36L313.121,1016.72C313.207,1016.77 313.301,1016.8 313.398,1016.82C313.415,1016.84 313.715,1016.85 313.954,1016.87L314.684,1016.93L317.602,1017.16C321.486,1017.45 325.403,1017.82 329.258,1018.04L340.945,1018.78L343.825,1018.96L346.71,1018.96L347.442,1018.96L347.808,1018.96C347.902,1018.95 347.923,1018.96 347.982,1018.95C348.182,1018.92 348.373,1018.83 348.521,1018.68C348.594,1018.61 348.654,1018.53 348.701,1018.44C348.722,1018.4 348.75,1018.33 348.75,1018.33C348.745,1018.4 348.816,1018.08 348.807,1018.11L349.092,1016.68L351.376,1005.19L351.662,1003.76L351.805,1003.04C351.867,1002.7 351.85,1002.87 351.859,1002.55L351.909,999.623L352.008,993.769L352.405,970.352C352.523,962.565 352.699,954.698 352.77,946.977L352.381,923.559L351.602,876.724L350.824,829.889L350.435,806.472C350.241,798.704 349.927,790.877 349.68,783.082L348.89,759.674L348.792,756.749L348.767,756.017L348.755,755.651L348.751,755.437L348.755,755.223L348.797,753.76L348.962,747.907L349.292,736.202L350.613,689.379L353.257,595.733C353.268,595.299 353.63,594.956 354.064,594.968C354.236,594.972 354.396,595.033 354.523,595.13C355.675,596.015 356.975,596.734 358.282,596.854C358.931,596.918 359.564,596.812 360.132,596.54C360.416,596.403 360.682,596.226 360.927,596.018C361.047,595.913 361.163,595.801 361.27,595.682C361.37,595.573 361.487,595.419 361.537,595.343L361.551,595.321C361.782,594.962 362.26,594.859 362.62,595.09C362.841,595.233 362.966,595.475 362.974,595.72L365.374,689.267L366.569,736.04L366.869,747.733L367.023,753.58L367.042,754.311L367.046,754.711L367.033,755.076L366.981,756.537L366.877,759.46L366.045,782.839C365.788,790.629 365.445,798.433 365.258,806.211L364.826,829.601L363.962,876.382L363.097,923.162L362.665,946.552L363.015,969.929L363.396,993.32L363.492,999.168C363.512,1000.12 363.514,1001.17 363.549,1002.04L364.105,1004.88L366.38,1016.35L366.522,1017.07C366.572,1017.31 366.611,1017.55 366.669,1017.72C366.791,1018.08 367.029,1018.4 367.345,1018.62C367.674,1018.85 368.016,1018.96 368.435,1018.96L369.897,1018.96C370.857,1018.95 371.878,1018.98 372.789,1018.94L375.708,1018.75L387.382,1018.01C391.258,1017.78 395.153,1017.42 399.037,1017.13L401.953,1016.9L402.681,1016.84C402.921,1016.83 403.073,1016.8 403.262,1016.73C403.58,1016.63 404.007,1016.3 404.419,1016.05L409.351,1012.91C409.546,1012.78 409.787,1012.64 409.943,1012.52C410.105,1012.42 410.229,1012.27 410.349,1012.13C410.565,1011.83 410.702,1011.46 410.697,1011.08C410.706,1010.7 410.58,1010.32 410.365,1010.02C410.212,1009.77 409.739,1009.44 409.383,1009.13L404.853,1005.43L403.721,1004.51C403.371,1004.24 402.871,1003.81 402.595,1003.46L400.638,1001.29L396.722,996.941L388.891,988.252L387.896,987.142C387.706,986.908 387.554,986.643 387.447,986.362C387.392,986.217 387.351,986.084 387.317,985.921L387.25,985.551L386.74,982.672L385.72,976.913L385.21,974.034L384.954,972.594C384.919,972.359 384.855,972.124 384.839,971.799C384.828,971.47 384.862,971.257 384.872,971.008L385.245,965.172L385.989,953.498L386.362,947.661L386.455,946.202L386.502,945.473C386.501,945.242 386.579,944.843 386.637,944.65L387.344,941.813L390.173,930.463L401.457,885.055L404.274,873.702L405.682,868.026L406.034,866.607C406.099,866.359 406.139,866.16 406.223,865.871L406.426,865.172L407.222,862.363C409.318,854.863 411.264,847.318 413.062,839.741C414.856,832.164 416.499,824.55 417.862,816.892C419.212,809.238 420.354,801.525 420.682,793.797L420.747,790.903C420.722,789.946 420.732,789.005 420.679,788.035L420.587,786.576L420.563,786.211L420.533,785.869L420.462,785.144L420.176,782.243C419.751,778.381 419.279,774.523 418.672,770.687C417.453,763.031 415.948,755.351 413.716,747.991L413.708,747.963C413.692,747.911 413.682,747.855 413.676,747.803C413.315,743.978 413.543,740.22 413.862,736.486C414.192,732.753 414.692,729.049 415.245,725.357C416.377,717.978 417.774,710.655 419.282,703.359C422.309,688.77 425.766,674.285 429.31,659.83L434.668,638.165L437.285,627.331C437.706,625.525 438.118,623.717 438.495,621.912C438.685,621.01 438.862,620.106 439.017,619.215C439.179,618.367 439.265,617.429 439.358,616.519C440.065,609.181 440.375,601.739 440.619,594.326C440.846,586.905 440.956,579.478 440.887,572.062C440.824,568.358 440.763,564.648 440.532,560.971C440.411,559.142 440.281,557.369 440.018,555.502C439.767,553.755 439.388,551.93 438.969,550.153C437.25,543.008 434.885,535.965 432.329,529.023C432.019,528.162 431.666,527.296 431.34,526.351L430.503,523.681L428.865,518.338C427.787,514.771 426.734,511.198 425.71,507.615C423.662,500.449 421.712,493.253 419.971,485.992C419.104,482.361 418.289,478.714 417.581,475.034C416.895,471.343 416.26,467.656 416.026,463.81L415.991,463.114L415.974,462.765C415.974,462.765 415.971,462.493 415.973,462.565L415.976,462.478L415.984,462.303L416.04,460.908L416.157,458.119L416.399,452.543L416.918,441.391C417.281,433.956 417.672,426.523 418.134,419.089C418.362,415.371 418.614,411.655 418.91,407.934C419.23,404.198 419.477,400.532 420.147,396.689C420.154,396.648 420.164,396.607 420.177,396.568L420.188,396.534L426.188,378.501C426.421,377.802 427.175,377.425 427.873,377.657C428.536,377.877 428.91,378.568 428.748,379.234L428.745,379.245C428.179,381.548 427.819,383.89 427.756,386.243C427.718,387.421 427.758,388.592 427.841,389.796L427.902,390.723C427.921,391.004 427.94,391.471 427.934,391.734L427.899,393.585C427.851,398.452 427.942,403.376 428.013,408.278C428.168,418.092 428.378,427.911 428.621,437.728C428.869,447.542 429.129,457.37 429.489,467.162C429.547,468.373 429.571,469.65 429.661,470.808C429.738,471.95 429.921,473.167 430.094,474.358C430.45,476.757 430.897,479.166 431.342,481.57C432.247,486.381 433.236,491.186 434.245,495.987C438.312,515.188 442.715,534.334 447.167,553.464L453.935,582.14L454.792,585.721L455.006,586.616L455.141,587.176L455.179,587.366C455.199,587.482 455.214,587.599 455.222,587.716C455.239,587.95 455.233,588.186 455.203,588.419C455.188,588.538 455.17,588.643 455.138,588.782L455.093,588.982L454.893,589.881L453.296,597.073L450.102,611.458L450.069,611.58C450.068,611.616 450.063,611.649 450.052,611.683L450.028,611.912C450.008,612.063 450.004,612.258 449.995,612.441C449.979,612.809 449.977,613.202 449.979,613.59C449.982,614.371 450.008,615.166 450.038,615.96C450.101,617.55 450.193,619.148 450.295,620.745C450.499,623.942 450.748,627.143 451.01,630.342L451.851,639.94L452.074,642.339L452.188,643.537L452.245,644.137L452.274,644.436L452.29,644.582L452.304,644.657C452.363,645.051 452.628,645.371 453.009,645.519C453.392,645.664 453.792,645.604 454.116,645.351L454.737,644.867C454.793,644.823 454.874,644.833 454.918,644.89C454.961,644.946 454.951,645.027 454.895,645.07C454.884,645.079 454.871,645.086 454.859,645.09L454.116,645.351C454.397,645.13 454.56,644.77 454.541,644.414C454.535,644.306 454.545,644.2 454.568,644.1L454.581,644.046L454.812,643.07L455.021,642.058C455.155,641.38 455.273,640.696 455.382,640.01C455.599,638.637 455.772,637.255 455.916,635.868C456.185,633.093 456.323,630.302 456.328,627.509L456.328,627.481C456.329,626.88 456.796,626.388 457.385,626.34C457.908,626.298 458.326,626.308 458.827,626.368C459.313,626.439 459.839,626.539 460.426,626.908C460.714,627.09 461.018,627.379 461.219,627.756C461.318,627.94 461.39,628.131 461.444,628.4L461.47,628.567L461.489,628.781L461.969,634.636L462.738,644.005L462.834,645.176C462.847,645.329 462.88,645.667 462.85,645.954C462.826,646.247 462.764,646.537 462.667,646.814C462.499,647.365 462.047,647.919 461.854,648.146L461.118,649.062L458.175,652.726L455.232,656.391L453.76,658.223L453.038,659.124C452.918,659.28 452.835,659.466 452.806,659.662C452.781,659.887 452.784,659.975 452.889,660.379L453.164,661.521C453.377,662.446 453.426,662.658 453.769,662.929C454.082,663.174 454.535,663.243 454.892,663.103C455.01,663.07 455.218,662.936 455.546,662.653L456.454,661.907L463.716,655.938L470.952,649.992C471.032,649.92 471.084,649.865 471.162,649.753L471.5,649.273L472.178,648.313L473.532,646.393L476.242,642.552L476.92,641.592L477.227,641.153C477.281,641.068 477.325,640.977 477.356,640.881C477.387,640.789 477.408,640.676 477.412,640.593L477.416,640.065L477.417,638.89L477.424,634.189L477.439,624.789L477.441,622.497C477.439,622.443 477.434,622.398 477.423,622.338L477.372,622.049L477.271,621.471L477.068,620.313L476.255,615.684L474.629,606.425L471.378,587.908L469.752,578.649L469.346,576.334L469.244,575.756L469.184,575.396L469.153,575.104L469.106,573.859L468.945,569.162L469.239,569.837L468.382,568.977C468.196,568.792 468.098,568.546 468.088,568.303L465.914,505.138L465.371,489.347L465.235,485.4C465.252,484.98 465.003,484.263 464.879,483.636L464.424,481.713L462.607,474.025L458.973,458.648L457.155,450.96C456.799,449.715 456.632,448.132 456.727,446.843L456.823,442.895L457.62,443.71L457.568,443.71C457.128,443.711 456.771,443.355 456.77,442.915L456.771,442.894C457.249,423.556 457.631,404.213 457.9,384.872C458.033,375.201 458.133,365.53 458.15,355.86C458.158,351.025 458.144,346.19 458.088,341.357C458.026,336.526 457.938,331.691 457.683,326.878C457.614,325.676 457.535,324.474 457.419,323.283C457.359,322.689 457.295,322.094 457.201,321.515C457.112,320.937 457.013,320.421 456.783,319.856C455.985,317.646 454.753,315.588 453.326,313.688C450.431,309.9 446.765,306.712 442.777,304.068C438.775,301.428 434.411,299.339 429.82,297.938L422.896,295.771L419.434,294.687L417.703,294.145C417.419,294.048 417.129,293.988 416.793,293.83C416.475,293.666 416.251,293.528 415.976,293.376C411.787,290.982 407.476,288.714 403.535,285.849C399.577,283.029 395.895,279.817 392.609,276.233C389.326,272.649 386.46,268.664 384.262,264.32C382.049,259.989 380.581,255.261 380.072,250.418L380.071,250.393L380.229,236.643ZM380.533,236.259L380.521,250.396L380.519,250.371C381.055,255.15 382.534,259.806 384.75,264.072C386.951,268.349 389.811,272.271 393.084,275.796C396.354,279.325 400.018,282.489 403.952,285.261C407.862,288.075 412.149,290.302 416.366,292.683L417.136,293.108C417.347,293.21 417.652,293.283 417.941,293.377L419.675,293.91L423.142,294.976L430.078,297.107C434.748,298.507 439.21,300.613 443.295,303.279C447.371,305.953 451.128,309.179 454.136,313.071C455.62,315.026 456.916,317.157 457.776,319.497C458.01,320.052 458.157,320.729 458.252,321.345C458.355,321.959 458.423,322.567 458.487,323.175C458.612,324.39 458.698,325.602 458.774,326.814C459.056,331.66 459.168,336.5 459.255,341.34C459.336,346.18 459.375,351.02 459.392,355.858C459.424,365.536 459.374,375.212 459.29,384.887C459.111,404.238 458.773,423.585 458.364,442.931L457.568,442.116L457.62,442.116C458.06,442.115 458.417,442.471 458.417,442.91L458.417,442.931L458.333,446.881C458.262,448.224 458.381,449.289 458.731,450.585L460.574,458.267L464.259,473.632L466.101,481.314L466.562,483.235L466.792,484.195L466.913,484.72C466.957,484.932 466.967,485.201 466.971,485.337L467.119,489.284L467.715,505.073L470.096,568.23L469.802,567.556L470.662,568.413C470.848,568.599 470.947,568.845 470.956,569.089L471.133,573.786L471.174,574.889L471.206,575.181C471.187,575.053 471.204,575.167 471.202,575.147L471.208,575.184L471.221,575.256L471.247,575.401L471.351,575.979L471.765,578.292L473.421,587.546L476.733,606.052L478.389,615.306L479.217,619.932L479.424,621.089L479.527,621.667L479.579,621.956C479.603,622.09 479.621,622.239 479.629,622.381L479.637,624.789L479.653,634.189L479.66,638.89L479.661,640.065C479.658,640.287 479.667,640.398 479.655,640.711C479.637,641.02 479.583,641.294 479.493,641.575C479.403,641.851 479.278,642.116 479.122,642.362L478.757,642.887L478.081,643.848L475.377,647.692L474.025,649.614L473.348,650.575L473.01,651.056C472.866,651.267 472.657,651.508 472.443,651.694L465.162,657.695L457.907,663.673L457,664.42C456.731,664.638 456.324,665.014 455.698,665.247C454.589,665.671 453.301,665.466 452.374,664.75C451.908,664.396 451.532,663.912 451.304,663.373C451.064,662.752 451.042,662.458 450.932,662.061L450.655,660.92C450.55,660.57 450.427,659.868 450.533,659.315C450.619,658.735 450.859,658.18 451.217,657.716L451.964,656.782L453.433,654.948L456.371,651.279L459.31,647.611C459.749,647.025 460.451,646.275 460.475,646.049C460.506,645.957 460.528,645.86 460.535,645.763C460.544,645.659 460.538,645.605 460.518,645.368L460.421,644.197L459.64,634.829L459.249,630.145L459.152,628.974L459.146,628.901L459.143,628.864C459.145,628.882 459.133,628.773 459.147,628.895C459.141,628.857 459.128,628.772 459.128,628.772C459.136,628.851 459.149,628.853 459.151,628.867C459.167,628.897 459.186,628.9 459.144,628.873C458.976,628.729 458.17,628.619 457.622,628.678L458.678,627.509C458.677,630.376 458.54,633.244 458.266,636.102C458.12,637.531 457.944,638.957 457.72,640.38C457.608,641.091 457.487,641.802 457.347,642.512L457.128,643.579C457.049,643.939 456.972,644.28 456.871,644.668L456.911,644.301C456.972,645.405 456.469,646.52 455.601,647.206L454.859,647.466L455.601,647.206C454.671,647.973 453.277,648.193 452.158,647.741C451.028,647.33 450.129,646.248 449.953,645.044L449.919,644.821L449.903,644.668L449.873,644.367L449.815,643.766L449.699,642.564L449.472,640.161L448.617,630.541C448.349,627.332 448.095,624.121 447.885,620.901C447.78,619.29 447.685,617.678 447.619,616.055C447.587,615.243 447.559,614.43 447.555,613.604C447.553,613.188 447.553,612.776 447.571,612.342C447.581,612.123 447.584,611.916 447.614,611.668C447.628,611.543 447.633,611.442 447.656,611.298C447.687,611.135 447.724,610.972 447.766,610.812L447.732,610.933L450.906,596.544L452.494,589.35L452.692,588.45L452.749,588.201L452.764,588.111C452.773,588.039 452.774,587.967 452.769,587.895L452.756,587.788L452.722,587.641L452.614,587.193L452.398,586.297L451.536,582.714L444.727,554.035C440.247,534.901 435.817,515.756 431.715,496.521C430.698,491.71 429.7,486.895 428.782,482.052C428.33,479.628 427.877,477.207 427.508,474.748C427.328,473.51 427.14,472.296 427.048,470.987C426.948,469.697 426.928,468.516 426.866,467.275C426.491,457.434 426.219,447.622 425.958,437.796C425.704,427.972 425.471,418.149 425.316,408.32C425.251,403.399 425.164,398.5 425.219,393.544L425.255,391.712C425.259,391.361 425.247,391.214 425.228,390.882L425.169,389.971C425.085,388.726 425.042,387.44 425.085,386.163C425.155,383.602 425.55,381.064 426.16,378.599L428.717,379.344L422.697,397.37L422.738,397.215C422.125,400.704 421.848,404.474 421.534,408.146C421.236,411.841 420.98,415.546 420.749,419.253C420.28,426.668 419.882,434.092 419.511,441.518L418.981,452.659L418.733,458.23L418.613,461.015L418.555,462.407L418.548,462.581L418.544,462.668C418.543,462.798 418.542,462.588 418.544,462.642L418.561,462.99L418.595,463.687C418.807,467.27 419.425,470.936 420.095,474.554C420.79,478.181 421.592,481.796 422.45,485.401C424.17,492.611 426.104,499.78 428.137,506.922C429.154,510.493 430.199,514.056 431.27,517.612L432.896,522.939L433.726,525.594C434.006,526.406 434.353,527.265 434.673,528.154C437.246,535.171 439.624,542.262 441.379,549.588C441.81,551.432 442.191,553.252 442.467,555.187C442.719,557.004 442.863,558.944 442.979,560.825C443.201,564.575 443.249,568.306 443.3,572.039C443.344,579.502 443.208,586.953 442.955,594.403C442.683,601.855 442.352,609.289 441.607,616.759C441.506,617.698 441.422,618.615 441.237,619.595C441.069,620.536 440.885,621.456 440.689,622.374C440.3,624.208 439.878,626.026 439.449,627.84L436.79,638.691L431.358,660.337C427.768,674.769 424.266,689.222 421.198,703.759C419.67,711.027 418.254,718.319 417.104,725.643C416.543,729.306 416.036,732.977 415.698,736.653C415.369,740.321 415.142,744.027 415.471,747.618L415.431,747.43C417.699,755.009 419.165,762.684 420.374,770.425C420.972,774.293 421.434,778.18 421.847,782.07L422.125,784.991L422.195,785.721L422.227,786.107L422.249,786.472L422.336,787.931C422.386,788.909 422.376,789.918 422.397,790.91L422.32,793.863C421.958,801.725 420.778,809.475 419.395,817.167C417.998,824.86 416.322,832.492 414.496,840.084C412.667,847.675 410.69,855.228 408.562,862.741L407.753,865.557L407.546,866.261C407.491,866.439 407.428,866.717 407.37,866.941L407.013,868.359L405.584,874.03L402.727,885.373L391.315,930.748L388.47,942.094L387.759,944.931C387.687,945.208 387.667,945.289 387.655,945.547L387.607,946.277L387.512,947.736L387.131,953.572L386.37,965.244L385.989,971.08C385.978,971.319 385.948,971.59 385.956,971.75C385.96,971.912 386.015,972.153 386.055,972.4L386.814,976.72L387.827,982.48L388.333,985.36L388.396,985.711C388.411,985.786 388.44,985.887 388.473,985.97C388.539,986.144 388.632,986.307 388.749,986.452L389.705,987.52L397.524,996.22L401.433,1000.57L403.388,1002.75C403.73,1003.15 403.982,1003.35 404.395,1003.69L405.526,1004.61L410.05,1008.32C410.424,1008.65 410.799,1008.85 411.219,1009.4C411.566,1009.89 411.76,1010.49 411.748,1011.09C411.75,1011.68 411.541,1012.27 411.19,1012.76C411.002,1012.99 410.796,1013.21 410.547,1013.38C410.307,1013.55 410.126,1013.65 409.913,1013.79L404.976,1016.93C404.549,1017.17 404.214,1017.48 403.612,1017.71C403.342,1017.81 403.009,1017.86 402.762,1017.88L402.033,1017.93L399.118,1018.16C395.225,1018.44 391.353,1018.79 387.445,1019.03L375.77,1019.75L372.851,1019.93C371.816,1019.97 370.885,1019.94 369.897,1019.95L368.435,1019.95C367.878,1019.95 367.244,1019.77 366.777,1019.43C366.292,1019.09 365.924,1018.59 365.737,1018.03C365.639,1017.73 365.609,1017.49 365.559,1017.26L365.418,1016.54L363.159,1005.06L362.595,1002.16C362.549,1001.08 362.557,1000.18 362.536,999.182L362.449,993.335L362.1,969.943L361.752,946.536L362.16,923.145L362.976,876.364L363.791,829.582L364.199,806.192C364.379,798.378 364.713,790.599 364.962,782.801L365.77,759.421L365.871,756.498L365.921,755.037L365.934,754.672L365.929,754.341L365.909,753.61L365.749,747.764L365.42,736.071L364.092,689.301L361.427,595.762L362.864,596.139C362.705,596.388 362.58,596.537 362.424,596.716C362.272,596.885 362.11,597.042 361.941,597.192C361.598,597.486 361.218,597.741 360.806,597.941C359.981,598.343 359.034,598.495 358.146,598.409C357.252,598.335 356.423,598.048 355.662,597.691C354.904,597.324 354.213,596.871 353.565,596.379L354.83,595.776L352.44,689.428L351.244,736.254L350.945,747.961L350.795,753.814L350.758,755.277L350.755,755.429L350.757,755.581L350.771,755.947L350.797,756.678L350.904,759.604L351.756,783.009C352.025,790.819 352.358,798.593 352.574,806.433L353.026,829.85L353.929,876.682L354.832,923.515L355.284,946.932C355.234,954.822 355.078,962.567 354.981,970.392L354.647,993.81L354.563,999.665L354.522,1002.59C354.542,1002.76 354.465,1003.42 354.418,1003.56L354.277,1004.27L353.996,1005.71L351.741,1017.2L351.459,1018.64C351.397,1018.91 351.424,1018.83 351.333,1019.13C351.258,1019.36 351.187,1019.51 351.097,1019.69C350.918,1020.03 350.685,1020.35 350.409,1020.62C349.857,1021.16 349.13,1021.52 348.363,1021.62C348.182,1021.65 347.958,1021.66 347.808,1021.66L347.442,1021.66L346.71,1021.67L343.74,1021.67L340.776,1021.49L329.088,1020.76C325.148,1020.54 321.291,1020.18 317.389,1019.9L314.47,1019.67L313.74,1019.61C313.494,1019.59 313.303,1019.6 312.842,1019.51C312.461,1019.44 312.093,1019.3 311.755,1019.1L311.081,1018.68L306.139,1015.54L305.521,1015.15L305.367,1015.05L305.148,1014.89C305.083,1014.86 304.867,1014.68 304.707,1014.52C304.14,1013.95 303.788,1013.22 303.678,1012.45C303.564,1011.68 303.698,1010.88 304.068,1010.19C304.251,1009.84 304.49,1009.52 304.771,1009.26L304.984,1009.06L305.129,1008.94L305.412,1008.71L309.941,1005L311.074,1004.07L311.64,1003.61L311.781,1003.49C311.671,1003.6 311.827,1003.45 311.837,1003.44L311.969,1003.31C311.866,1003.42 312.011,1003.26 312.02,1003.25L313.977,1001.08L317.891,996.723L325.719,988.014L326.698,986.925C326.786,986.829 326.844,986.761 326.853,986.746C326.882,986.707 326.908,986.667 326.93,986.624C326.975,986.534 327.004,986.456 327.023,986.34L327.531,983.457L328.544,977.69L329.052,974.807L329.305,973.365L329.428,972.664C329.44,972.556 329.443,972.559 329.421,972.251L329.041,966.408L328.279,954.722L327.899,948.88L327.804,947.419L327.756,946.688L327.733,946.331C327.73,946.295 327.722,946.241 327.712,946.198L327.005,943.377L324.157,932.018L312.769,886.582L309.922,875.223L308.498,869.543L308.142,868.123L307.964,867.414L307.773,866.765L306.963,863.94C304.836,856.405 302.864,848.834 301.036,841.221C299.212,833.608 297.54,825.954 296.145,818.233C294.763,810.512 293.585,802.732 293.224,794.804C293.182,793.812 293.174,792.815 293.148,791.821C293.166,790.821 293.161,789.824 293.209,788.819C293.302,786.78 293.526,784.844 293.706,782.907C294.125,778.994 294.593,775.088 295.197,771.207C295.796,767.323 296.485,763.451 297.297,759.6C298.12,755.737 299.009,751.943 300.195,748.087L300.127,748.409C300.453,744.904 300.236,741.215 299.911,737.569C299.58,733.912 299.078,730.251 298.522,726.597C297.384,719.288 295.977,712.003 294.458,704.74C291.405,690.213 287.925,675.76 284.367,661.323L278.978,639.668L276.338,628.806C275.912,626.989 275.493,625.168 275.106,623.327C274.911,622.406 274.728,621.479 274.561,620.533C274.478,620.051 274.405,619.591 274.339,619.053L274.192,617.666C273.459,610.166 273.143,602.736 272.884,595.275C272.646,587.82 272.524,580.364 272.583,572.895C272.641,569.157 272.696,565.422 272.926,561.664C273.047,559.781 273.185,557.9 273.454,555.975C273.586,554.959 273.769,554.12 273.933,553.177C274.139,552.243 274.322,551.286 274.549,550.372C276.315,543.024 278.701,535.93 281.282,528.906L281.774,527.591L282.021,526.936L282.123,526.669L282.141,526.626L282.175,526.525L282.227,526.359L283.059,523.708L284.688,518.384C285.761,514.831 286.809,511.269 287.828,507.701C289.865,500.564 291.804,493.399 293.529,486.196C294.388,482.595 295.193,478.984 295.889,475.364C296.562,471.749 297.18,468.101 297.394,464.523L297.427,463.855L297.444,463.521C297.446,463.471 297.448,463.658 297.445,463.538L297.442,463.45L297.435,463.276L297.378,461.884L297.26,459.099L297.016,453.528L296.495,442.388C296.13,434.963 295.738,427.539 295.275,420.126C295.046,416.419 294.794,412.714 294.499,409.021C294.188,405.354 293.912,401.577 293.306,398.114L293.354,398.293L287.348,380.262L290.267,379.412C290.878,381.889 291.273,384.441 291.342,387.016C291.384,388.3 291.34,389.594 291.254,390.842C291.216,391.452 291.162,392.095 291.167,392.544L291.202,394.387C291.253,399.374 291.162,404.253 291.094,409.181C290.936,419.011 290.712,428.835 290.461,438.659C290.204,448.484 289.936,458.303 289.566,468.136C289.504,469.386 289.483,470.554 289.381,471.874C289.3,473.061 289.098,474.421 288.919,475.634C288.548,478.098 288.094,480.519 287.641,482.945C286.72,487.789 285.72,492.605 284.7,497.416C280.59,516.651 276.152,535.795 271.664,554.928L264.842,583.605L263.978,587.187L263.762,588.083L263.653,588.531L263.626,588.643C263.637,588.597 263.614,588.705 263.62,588.677L263.61,588.763C263.606,588.826 263.606,588.89 263.614,588.952L263.63,589.046L263.683,589.28L263.881,590.179L265.466,597.374L268.634,611.765L268.597,611.631C268.641,611.798 268.679,611.967 268.712,612.137C268.735,612.285 268.74,612.387 268.755,612.514C268.784,612.767 268.787,612.974 268.797,613.195C268.816,613.633 268.815,614.046 268.813,614.463C268.808,615.292 268.78,616.105 268.748,616.919C268.681,618.543 268.585,620.156 268.48,621.767C268.268,624.989 268.012,628.2 267.743,631.41L266.884,641.03L266.656,643.433L266.54,644.635L266.481,645.236L266.451,645.537L266.424,645.769L266.4,645.917C266.218,647.165 265.29,648.278 264.125,648.702C262.972,649.168 261.532,648.94 260.575,648.149L261.385,648.433L260.575,648.149C259.68,647.442 259.162,646.292 259.225,645.154L259.269,645.555C259.167,645.163 259.091,644.822 259.011,644.46L258.792,643.391C258.653,642.679 258.531,641.968 258.42,641.255C258.196,639.83 258.02,638.401 257.875,636.971C257.602,634.109 257.465,631.238 257.465,628.367L258.612,629.636C258.083,629.576 257.278,629.693 257.155,629.815C257.122,629.835 257.155,629.82 257.18,629.772C257.189,629.749 257.201,629.727 257.201,629.711C257.203,629.705 257.206,629.703 257.203,629.699L257.191,629.841L257.092,631.012L256.7,635.696L255.915,645.063L255.817,646.234L255.797,646.497L255.8,646.614C255.806,646.704 255.826,646.792 255.855,646.878C255.866,647.073 256.562,647.825 257.005,648.413L259.941,652.083L262.878,655.753L264.347,657.587L265.102,658.534C265.452,658.987 265.71,659.572 265.794,660.16C265.839,660.457 265.846,660.759 265.816,661.058C265.801,661.207 265.775,661.355 265.742,661.501L265.67,661.798L265.392,662.94L265.254,663.51L265.219,663.653L265.156,663.872C265.116,663.984 265.123,664.013 265.038,664.209C264.76,664.871 264.406,665.287 263.919,665.674C262.97,666.406 261.653,666.616 260.517,666.181C259.954,665.987 259.422,665.537 259.193,665.341L258.286,664.593L251.034,658.612L243.755,652.607C243.534,652.416 243.322,652.171 243.175,651.955L242.837,651.475L242.161,650.513L240.81,648.591L238.107,644.746L237.431,643.784L237.075,643.272C236.896,642.991 236.783,642.743 236.687,642.454C236.596,642.172 236.54,641.879 236.523,641.583L236.516,641.364L236.516,641.217L236.517,640.923L236.518,639.748L236.523,635.048L236.534,625.648L236.541,623.236C236.548,623.091 236.567,622.938 236.592,622.802L236.643,622.513L236.746,621.934L236.953,620.778L237.778,616.15L239.429,606.896L242.731,588.388L244.385,579.134L244.799,576.821L244.903,576.242L244.929,576.098L244.942,576.026L244.948,575.989C244.945,576.012 244.964,575.889 244.943,576.03L244.975,575.738L245.015,574.641L245.193,569.944C245.203,569.657 245.327,569.394 245.515,569.205L246.375,568.348L246.054,569.086L248.445,505.929L249.042,490.14L249.192,486.193C249.195,486.059 249.205,485.78 249.25,485.563L249.373,485.035L249.603,484.075L250.064,482.154L251.907,474.472L255.595,459.108L257.438,451.426C257.788,450.135 257.906,449.076 257.835,447.741L257.752,443.792C257.74,443.311 258.12,442.911 258.601,442.9C258.606,442.899 258.619,442.899 258.624,442.899L258.676,442.899L257.805,443.792C257.396,424.445 257.07,405.098 256.881,385.747C256.79,376.071 256.732,366.395 256.757,356.717C256.77,351.878 256.805,347.038 256.883,342.197C256.965,337.356 257.077,332.515 257.359,327.666C257.436,326.453 257.522,325.24 257.646,324.022C257.797,322.818 257.876,321.555 258.364,320.319C259.23,317.962 260.531,315.825 262.02,313.863C265.038,309.958 268.804,306.726 272.889,304.046C276.982,301.374 281.455,299.263 286.134,297.861L293.069,295.73L296.537,294.665L298.271,294.132C298.56,294.037 298.868,293.963 299.062,293.868L299.825,293.447C304.044,291.065 308.326,288.84 312.229,286.032C316.158,283.263 319.816,280.105 323.081,276.581C326.345,273.061 329.196,269.144 331.388,264.876C333.594,260.62 335.065,255.978 335.595,251.216L335.593,251.25L335.778,235.455C335.78,235.289 335.916,235.157 336.082,235.159C336.162,235.16 336.236,235.194 336.29,235.245L341.113,239.941C342.732,241.49 344.302,243.108 345.962,244.596C347.624,246.073 349.463,247.359 351.506,248.217C352.525,248.646 353.584,248.989 354.672,249.196C355.77,249.401 356.843,249.539 357.975,249.528C359.091,249.545 360.181,249.43 361.277,249.229C362.367,249.02 363.439,248.718 364.48,248.328C366.567,247.556 368.523,246.448 370.359,245.182C372.194,243.906 373.901,242.456 375.544,240.931C377.184,239.408 378.782,237.827 380.27,236.16C380.325,236.098 380.42,236.091 380.482,236.146C380.515,236.175 380.533,236.218 380.533,236.259" style="fill:rgb(102,102,102);fill-rule:nonzero;"/>
                        </g>
                    </g>
                </g>
            </g>
            <g>
                <g opacity="0.610001">
                    <g>
                        <clipPath id="_clip2">
                            <rect x="315.99" y="124.795" width="85.193" height="125.063"/>
                        </clipPath>
                        <g clip-path="url(#_clip2)">
                            <path d="M358.438,249.662C358.438,249.662 354.677,250.2 349.842,248.073C347.777,247.164 335.141,235.887 329.725,228.343C325.719,222.763 320.827,215.383 319.087,195.847C317.346,176.311 316.587,168.409 316.572,165.14C316.557,161.871 316.765,126.89 358.353,125.342L358.352,125.342C399.939,126.89 400.148,161.871 400.133,165.14C400.118,168.409 399.359,176.335 397.618,195.871C395.877,215.407 390.986,222.775 386.98,228.355C381.564,235.899 368.928,247.17 366.863,248.079C362.027,250.206 358.356,249.662 358.356,249.662" style="fill:white;fill-rule:nonzero;"/>
                            <path d="M358.451,249.761C356.696,249.976 354.923,249.817 353.198,249.453C352.337,249.261 351.489,249.012 350.655,248.719C350.241,248.545 349.834,248.435 349.415,248.203C348.989,247.961 348.648,247.716 348.282,247.457C345.451,245.365 342.826,243.06 340.262,240.68C337.701,238.298 335.213,235.835 332.847,233.241C331.67,231.937 330.516,230.608 329.445,229.192C328.383,227.788 327.382,226.344 326.44,224.84C324.555,221.838 323.06,218.582 321.933,215.232C320.803,211.878 319.993,208.436 319.375,204.973C318.725,201.516 318.39,198.004 318.092,194.528L317.205,184.111L316.421,173.681L316.089,168.451C315.997,166.712 315.932,164.924 316.065,163.159C316.303,159.635 316.953,156.152 317.993,152.791C319.019,149.428 320.428,146.172 322.292,143.185C324.135,140.185 326.462,137.5 329.087,135.163C331.724,132.835 334.72,130.923 337.905,129.439C341.093,127.951 344.466,126.896 347.893,126.131C351.327,125.382 354.826,124.975 358.332,124.795L358.352,125.889L358.373,124.795C365.366,124.986 372.48,126.091 378.975,129.034C382.213,130.492 385.273,132.391 387.984,134.721C390.689,137.056 393.029,139.818 394.908,142.857C396.798,145.891 398.235,149.192 399.261,152.602C400.285,156.016 400.912,159.538 401.123,163.103C401.24,164.883 401.169,166.703 401.049,168.447C400.931,170.198 400.786,171.936 400.638,173.675L399.707,184.09L398.757,194.496C398.607,196.229 398.412,197.986 398.224,199.711C398,201.462 397.744,203.209 397.427,204.938C396.8,208.401 395.981,211.842 394.843,215.195C393.715,218.547 392.204,221.798 390.317,224.797C389.374,226.3 388.367,227.738 387.306,229.143C386.237,230.558 385.083,231.889 383.906,233.19C381.54,235.783 379.051,238.242 376.49,240.621C373.924,242.996 371.3,245.3 368.476,247.393C368.119,247.652 367.758,247.904 367.365,248.136C366.944,248.387 366.526,248.5 366.127,248.669C365.29,248.966 364.446,249.224 363.587,249.416C361.866,249.784 360.101,249.974 358.342,249.761L358.371,249.563C360.084,249.698 361.826,249.439 363.487,249.008C364.32,248.785 365.133,248.498 365.925,248.18C366.32,247.995 366.745,247.852 367.063,247.636C367.411,247.412 367.755,247.15 368.093,246.884C370.782,244.715 373.298,242.299 375.788,239.885C378.263,237.452 380.665,234.941 382.922,232.321C385.19,229.72 387.19,226.909 388.982,223.977C390.753,221.048 392.147,217.911 393.184,214.644C394.23,211.379 394.971,208.012 395.525,204.612C395.815,202.91 396.01,201.202 396.231,199.499C396.413,197.76 396.598,196.054 396.741,194.316L397.652,183.906L398.544,173.5C398.684,171.767 398.823,170.034 398.932,168.309C399.041,166.578 399.142,164.912 399.043,163.212C398.686,156.434 396.83,149.648 393.306,143.842C391.554,140.934 389.349,138.313 386.822,136.049C384.286,133.792 381.399,131.929 378.311,130.474C375.223,129.014 371.935,127.972 368.582,127.22C365.222,126.48 361.784,126.073 358.332,125.889L358.352,124.795L358.373,125.889C354.916,125.99 351.462,126.313 348.067,126.974C344.675,127.635 341.338,128.628 338.2,130.078C335.058,131.51 332.103,133.362 329.494,135.627C326.885,137.893 324.67,140.597 322.882,143.547C319.283,149.454 317.456,156.353 317.176,163.216C317.095,164.932 317.206,166.633 317.344,168.369L317.814,173.564L318.855,183.964L319.831,194.373C320.162,197.838 320.53,201.268 321.106,204.675C321.676,208.077 322.433,211.446 323.494,214.711C324.554,217.974 325.956,221.114 327.747,224.034C329.555,226.956 331.563,229.768 333.837,232.364C336.101,234.98 338.507,237.489 340.987,239.919C343.482,242.329 346,244.747 348.692,246.909C349.025,247.169 349.387,247.443 349.711,247.645C350.045,247.856 350.48,248.001 350.862,248.18C351.66,248.498 352.475,248.774 353.307,248.996C354.97,249.417 356.706,249.684 358.425,249.563L358.451,249.761Z" style="fill:rgb(102,102,102);fill-rule:nonzero;"/>
                        </g>
                    </g>
                </g>
            </g>
        </g>
    </g>
</svg>
